<?xml version="1.0" encoding="UTF-8"?>
<!DOCTYPE svg PUBLIC "-//W3C//DTD SVG 1.1//EN" "http://www.w3.org/Graphics/SVG/1.1/DTD/svg11.dtd">
<svg xmlns="http://www.w3.org/2000/svg" version="1.1" width="500px" height="500px" style="shape-rendering:geometricPrecision; text-rendering:geometricPrecision; image-rendering:optimizeQuality; fill-rule:evenodd; clip-rule:evenodd" xmlns:xlink="http://www.w3.org/1999/xlink">
<g><path style="opacity:1" fill="#040053" d="M -0.5,-0.5 C 166.167,-0.5 332.833,-0.5 499.5,-0.5C 499.5,166.167 499.5,332.833 499.5,499.5C 332.833,499.5 166.167,499.5 -0.5,499.5C -0.5,332.833 -0.5,166.167 -0.5,-0.5 Z"/></g>
<g><path style="opacity:1" fill="#e7e7ee" d="M 264.5,115.5 C 262.998,118.022 261.665,118.022 260.5,115.5C 261.833,114.167 263.167,114.167 264.5,115.5 Z"/></g>
<g><path style="opacity:1" fill="#d2d1e0" d="M 288.5,119.5 C 290.099,119.232 291.432,119.566 292.5,120.5C 290.577,123.218 289.244,122.884 288.5,119.5 Z"/></g>
<g><path style="opacity:1" fill="#110959" d="M 260.5,115.5 C 261.665,118.022 262.998,118.022 264.5,115.5C 272.536,116.617 280.536,117.95 288.5,119.5C 289.244,122.884 290.577,123.218 292.5,120.5C 294.284,120.893 295.95,121.559 297.5,122.5C 297.167,125.833 296.833,129.167 296.5,132.5C 293.833,133.833 293.833,135.167 296.5,136.5C 296.663,138.857 296.497,141.19 296,143.5C 294.378,144.099 292.878,144.766 291.5,145.5C 289.801,145.66 288.134,145.494 286.5,145C 288.954,143.26 290.454,141.093 291,138.5C 289,140.5 287,142.5 285,144.5C 284.257,142.559 284.424,140.726 285.5,139C 283.833,138.333 282.167,138.333 280.5,139C 281.448,139.483 282.448,139.649 283.5,139.5C 283.5,141.167 283.5,142.833 283.5,144.5C 282.735,144.923 281.902,145.257 281,145.5C 278.357,143.762 275.523,142.428 272.5,141.5C 272.179,139.952 271.179,139.285 269.5,139.5C 264.527,137.945 260.527,135.945 257.5,133.5C 255.529,131.192 253.529,128.858 251.5,126.5C 254.833,126.5 258.167,126.5 261.5,126.5C 257.505,126.128 253.838,124.795 250.5,122.5C 249.692,122.808 249.025,123.308 248.5,124C 243.511,124.499 238.511,124.666 233.5,124.5C 233.167,124.5 232.833,124.5 232.5,124.5C 240.744,118.308 250.078,115.308 260.5,115.5 Z"/></g>
<g><path style="opacity:1" fill="#91a4c1" d="M 261.5,126.5 C 258.167,126.5 254.833,126.5 251.5,126.5C 245.559,125.587 239.559,125.254 233.5,125.5C 233.5,125.167 233.5,124.833 233.5,124.5C 238.511,124.666 243.511,124.499 248.5,124C 249.025,123.308 249.692,122.808 250.5,122.5C 253.838,124.795 257.505,126.128 261.5,126.5 Z"/></g>
<g><path style="opacity:1" fill="#2d226a" d="M 297.5,122.5 C 305.145,125.654 312.812,128.821 320.5,132C 321.381,132.708 322.047,133.542 322.5,134.5C 314.284,131.579 305.951,131.246 297.5,133.5C 296.833,133.5 296.5,133.167 296.5,132.5C 296.833,129.167 297.167,125.833 297.5,122.5 Z"/></g>
<g><path style="opacity:1" fill="#908db2" d="M 261.5,126.5 C 268.761,125.861 276.094,126.028 283.5,127C 282.584,127.374 281.75,127.874 281,128.5C 277.045,127.225 273.045,127.225 269,128.5C 266.331,127.984 263.831,127.317 261.5,126.5 Z"/></g>
<g><path style="opacity:1" fill="#4fe1e4" d="M 233.5,125.5 C 239.559,125.254 245.559,125.587 251.5,126.5C 253.529,128.858 255.529,131.192 257.5,133.5C 258.551,134.222 259.218,135.222 259.5,136.5C 256.664,135.224 253.664,134.558 250.5,134.5C 250.53,133.503 250.03,132.836 249,132.5C 245.333,133.833 241.667,133.833 238,132.5C 237.5,132.833 237,133.167 236.5,133.5C 237.795,136.366 237.795,139.199 236.5,142C 230.056,142.915 223.723,142.581 217.5,141C 218.929,138.31 219.929,135.477 220.5,132.5C 223.011,130.497 225.678,128.664 228.5,127C 230.312,125.687 231.979,125.187 233.5,125.5 Z"/></g>
<g><path style="opacity:1" fill="#625d92" d="M 274.5,131.5 C 279.118,132.219 283.785,132.719 288.5,133C 286.167,133.167 283.833,133.333 281.5,133.5C 278.731,133.471 276.397,132.805 274.5,131.5 Z"/></g>
<g><path style="opacity:1" fill="#dfdfe9" d="M 296.5,132.5 C 296.5,133.167 296.833,133.5 297.5,133.5C 296.89,134.391 296.557,135.391 296.5,136.5C 293.833,135.167 293.833,133.833 296.5,132.5 Z"/></g>
<g><path style="opacity:1" fill="#130a5a" d="M 322.5,134.5 C 331.21,141.179 339.877,147.846 348.5,154.5C 345.833,155.167 345.833,155.833 348.5,156.5C 350.985,165.441 353.319,174.441 355.5,183.5C 350.833,183.167 346.167,182.833 341.5,182.5C 341.189,181.522 340.522,180.855 339.5,180.5C 338.571,181.689 338.238,183.022 338.5,184.5C 339.791,184.737 340.791,184.404 341.5,183.5C 345.534,183.672 349.534,184.172 353.5,185C 354.123,187.607 354.79,190.107 355.5,192.5C 355.5,193.167 355.167,193.5 354.5,193.5C 353.5,199.5 352.5,205.5 351.5,211.5C 349.91,207.232 348.41,202.899 347,198.5C 343.88,204.405 341.046,210.405 338.5,216.5C 335.123,216.041 331.789,215.374 328.5,214.5C 327.791,213.596 326.791,213.263 325.5,213.5C 326.738,208.357 329.072,203.69 332.5,199.5C 327.636,198.213 322.969,196.547 318.5,194.5C 316.86,190.559 314.694,186.892 312,183.5C 309.949,179.023 310.116,174.69 312.5,170.5C 312.19,168.856 311.19,167.856 309.5,167.5C 306.833,164.5 304.167,161.5 301.5,158.5C 302.609,157.71 303.942,157.21 305.5,157C 303.482,156.495 301.482,155.995 299.5,155.5C 294.54,153.353 289.873,150.686 285.5,147.5C 287.698,147.125 289.698,146.458 291.5,145.5C 293.5,145.5 295.5,145.5 297.5,145.5C 297.336,148.187 297.503,150.854 298,153.5C 298.256,150.443 298.756,147.443 299.5,144.5C 298.083,141.908 297.083,139.241 296.5,136.5C 296.557,135.391 296.89,134.391 297.5,133.5C 305.951,131.246 314.284,131.579 322.5,134.5 Z"/></g>
<g><path style="opacity:1" fill="#3ee2e5" d="M 248.5,135.5 C 248.5,138.833 248.5,142.167 248.5,145.5C 246.194,145.007 243.861,144.674 241.5,144.5C 240.828,143.733 239.995,143.066 239,142.5C 238.503,139.854 238.336,137.187 238.5,134.5C 241.939,134.253 245.272,134.586 248.5,135.5 Z"/></g>
<g><path style="opacity:1" fill="#bce9ec" d="M 232.5,124.5 C 232.833,124.5 233.167,124.5 233.5,124.5C 233.5,124.833 233.5,125.167 233.5,125.5C 231.979,125.187 230.312,125.687 228.5,127C 225.678,128.664 223.011,130.497 220.5,132.5C 220.265,131.903 219.765,131.57 219,131.5C 211.802,132.522 204.635,133.688 197.5,135C 199.5,137.667 201.5,140.333 203.5,143C 204.448,143.483 205.448,143.649 206.5,143.5C 205.486,144.674 204.153,145.34 202.5,145.5C 198.011,144.783 193.344,144.783 188.5,145.5C 187.833,145.5 187.167,145.5 186.5,145.5C 189.704,140.611 193.704,136.444 198.5,133C 209.852,130.162 221.186,127.329 232.5,124.5 Z"/></g>
<g><path style="opacity:1" fill="#31719d" d="M 257.5,133.5 C 260.527,135.945 264.527,137.945 269.5,139.5C 267.167,140.833 264.833,142.167 262.5,143.5C 259.923,143.455 257.923,144.455 256.5,146.5C 254.741,146.046 252.741,146.046 250.5,146.5C 252.604,142.241 255.604,138.907 259.5,136.5C 259.218,135.222 258.551,134.222 257.5,133.5 Z"/></g>
<g><path style="opacity:1" fill="#817ea8" d="M 296.5,136.5 C 297.083,139.241 298.083,141.908 299.5,144.5C 298.756,147.443 298.256,150.443 298,153.5C 297.503,150.854 297.336,148.187 297.5,145.5C 295.5,145.5 293.5,145.5 291.5,145.5C 292.878,144.766 294.378,144.099 296,143.5C 296.497,141.19 296.663,138.857 296.5,136.5 Z"/></g>
<g><path style="opacity:1" fill="#ebeaf1" d="M 310.5,138.5 C 313.957,138.667 314.29,139.667 311.5,141.5C 310.614,140.675 310.281,139.675 310.5,138.5 Z"/></g>
<g><path style="opacity:1" fill="#56528a" d="M 291.5,145.5 C 289.698,146.458 287.698,147.125 285.5,147.5C 285.218,146.222 284.551,145.222 283.5,144.5C 283.5,142.833 283.5,141.167 283.5,139.5C 282.448,139.649 281.448,139.483 280.5,139C 282.167,138.333 283.833,138.333 285.5,139C 284.424,140.726 284.257,142.559 285,144.5C 287,142.5 289,140.5 291,138.5C 290.454,141.093 288.954,143.26 286.5,145C 288.134,145.494 289.801,145.66 291.5,145.5 Z"/></g>
<g><path style="opacity:1" fill="#9be8eb" d="M 220.5,132.5 C 219.929,135.477 218.929,138.31 217.5,141C 223.723,142.581 230.056,142.915 236.5,142C 237.795,139.199 237.795,136.366 236.5,133.5C 237,133.167 237.5,132.833 238,132.5C 241.667,133.833 245.333,133.833 249,132.5C 250.03,132.836 250.53,133.503 250.5,134.5C 250.158,135.338 249.492,135.672 248.5,135.5C 245.272,134.586 241.939,134.253 238.5,134.5C 238.336,137.187 238.503,139.854 239,142.5C 239.995,143.066 240.828,143.733 241.5,144.5C 240.167,144.5 239.5,145.167 239.5,146.5C 238.849,145.909 238.182,145.243 237.5,144.5C 236.893,144.624 236.56,144.957 236.5,145.5C 234.738,145.357 233.071,145.691 231.5,146.5C 229.362,148.735 227.029,150.735 224.5,152.5C 224.5,152.167 224.5,151.833 224.5,151.5C 223.409,148.572 221.409,146.406 218.5,145C 214.605,143.734 210.605,143.234 206.5,143.5C 205.448,143.649 204.448,143.483 203.5,143C 201.5,140.333 199.5,137.667 197.5,135C 204.635,133.688 211.802,132.522 219,131.5C 219.765,131.57 220.265,131.903 220.5,132.5 Z"/></g>
<g><path style="opacity:1" fill="#f0d87d" d="M 202.5,145.5 C 201.189,148.135 199.522,150.469 197.5,152.5C 196.671,151.668 195.838,152.001 195,153.5C 192.218,151.229 190.051,148.563 188.5,145.5C 193.344,144.783 198.011,144.783 202.5,145.5 Z"/></g>
<g><path style="opacity:1" fill="#59b3c8" d="M 250.5,134.5 C 253.664,134.558 256.664,135.224 259.5,136.5C 255.604,138.907 252.604,142.241 250.5,146.5C 248.311,147.968 245.977,149.635 243.5,151.5C 241.003,150.871 239.67,149.204 239.5,146.5C 239.5,145.167 240.167,144.5 241.5,144.5C 243.861,144.674 246.194,145.007 248.5,145.5C 248.5,142.167 248.5,138.833 248.5,135.5C 249.492,135.672 250.158,135.338 250.5,134.5 Z"/></g>
<g><path style="opacity:1" fill="#eccc58" d="M 206.5,143.5 C 210.605,143.234 214.605,143.734 218.5,145C 221.409,146.406 223.409,148.572 224.5,151.5C 223.395,152.6 222.062,153.267 220.5,153.5C 212.718,152.959 205.051,152.625 197.5,152.5C 199.522,150.469 201.189,148.135 202.5,145.5C 204.153,145.34 205.486,144.674 206.5,143.5 Z"/></g>
<g><path style="opacity:1" fill="#22437f" d="M 256.5,146.5 C 253.211,148.616 250.044,150.949 247,153.5C 245.421,152.828 244.254,153.495 243.5,155.5C 241.425,155.698 239.425,155.865 237.5,156C 238.373,154.955 239.373,154.122 240.5,153.5C 241.71,153.068 242.71,152.401 243.5,151.5C 245.977,149.635 248.311,147.968 250.5,146.5C 252.741,146.046 254.741,146.046 256.5,146.5 Z"/></g>
<g><path style="opacity:1" fill="#b8eef1" d="M 262.5,143.5 C 261.697,144.423 261.53,145.423 262,146.5C 264.123,149.299 266.79,151.299 270,152.5C 270.617,153.449 270.451,154.282 269.5,155C 262.212,154.652 254.879,154.485 247.5,154.5C 247.804,159.313 250.137,162.479 254.5,164C 253.663,165.011 253.33,166.178 253.5,167.5C 250.444,166.412 247.444,166.412 244.5,167.5C 244.167,166.5 243.5,165.833 242.5,165.5C 242.955,162.797 243.622,160.13 244.5,157.5C 244.457,156.584 244.124,155.917 243.5,155.5C 244.254,153.495 245.421,152.828 247,153.5C 250.044,150.949 253.211,148.616 256.5,146.5C 257.923,144.455 259.923,143.455 262.5,143.5 Z"/></g>
<g><path style="opacity:1" fill="#59aac0" d="M 236.5,145.5 C 235.71,146.794 234.71,147.961 233.5,149C 232.079,150.421 230.245,152.255 228,154.5C 225.92,157.065 224.087,159.732 222.5,162.5C 222.167,162.5 221.833,162.5 221.5,162.5C 221.5,162.167 221.5,161.833 221.5,161.5C 222.216,158.402 223.216,155.402 224.5,152.5C 227.029,150.735 229.362,148.735 231.5,146.5C 233.071,145.691 234.738,145.357 236.5,145.5 Z"/></g>
<g><path style="opacity:1" fill="#b5b3cc" d="M 324.5,147.5 C 326.76,148.238 326.927,149.238 325,150.5C 323.272,149.648 323.105,148.648 324.5,147.5 Z"/></g>
<g><path style="opacity:1" fill="#60bcce" d="M 272.5,141.5 C 275.523,142.428 278.357,143.762 281,145.5C 281.902,145.257 282.735,144.923 283.5,144.5C 284.551,145.222 285.218,146.222 285.5,147.5C 289.873,150.686 294.54,153.353 299.5,155.5C 299.5,156.167 299.5,156.833 299.5,157.5C 297.147,158.34 295.147,159.674 293.5,161.5C 292.5,161.5 291.5,161.5 290.5,161.5C 288.19,157.555 285.857,153.555 283.5,149.5C 281.447,150.939 280.447,152.939 280.5,155.5C 279.5,155.5 278.5,155.5 277.5,155.5C 275.796,150.814 274.129,146.148 272.5,141.5 Z"/></g>
<g><path style="opacity:1" fill="#326b98" d="M 239.5,146.5 C 239.67,149.204 241.003,150.871 243.5,151.5C 242.71,152.401 241.71,153.068 240.5,153.5C 238.673,152.418 236.673,152.418 234.5,153.5C 233.287,153.747 232.62,154.414 232.5,155.5C 229.167,157.833 225.833,160.167 222.5,162.5C 224.087,159.732 225.92,157.065 228,154.5C 230.245,152.255 232.079,150.421 233.5,149C 234.71,147.961 235.71,146.794 236.5,145.5C 236.56,144.957 236.893,144.624 237.5,144.5C 238.182,145.243 238.849,145.909 239.5,146.5 Z"/></g>
<g><path style="opacity:1" fill="#e45314" d="M 224.5,151.5 C 224.5,151.833 224.5,152.167 224.5,152.5C 223.216,155.402 222.216,158.402 221.5,161.5C 219.254,162.21 216.92,162.71 214.5,163C 216.382,163.198 218.048,163.698 219.5,164.5C 217.5,166.167 215.5,167.833 213.5,169.5C 212.833,169.167 212.167,168.833 211.5,168.5C 211.634,166.708 211.301,165.042 210.5,163.5C 211.404,162.791 211.737,161.791 211.5,160.5C 213.131,158.357 215.131,156.69 217.5,155.5C 218.71,155.068 219.71,154.401 220.5,153.5C 222.062,153.267 223.395,152.6 224.5,151.5 Z"/></g>
<g><path style="opacity:1" fill="#efdb90" d="M 178.5,152.5 C 183.434,152.446 188.434,153.28 193.5,155C 188.189,158.238 182.523,160.071 176.5,160.5C 173.713,161.477 170.713,161.81 167.5,161.5C 167.5,161.167 167.5,160.833 167.5,160.5C 170.601,157.067 174.268,154.4 178.5,152.5 Z"/></g>
<g><path style="opacity:1" fill="#e5b81a" d="M 217.5,155.5 C 215.131,156.69 213.131,158.357 211.5,160.5C 210.539,158.735 210.205,156.735 210.5,154.5C 213.059,154.198 215.393,154.532 217.5,155.5 Z"/></g>
<g><path style="opacity:1" fill="#4fdfe3" d="M 269.5,139.5 C 271.179,139.285 272.179,139.952 272.5,141.5C 274.129,146.148 275.796,150.814 277.5,155.5C 278.5,155.5 279.5,155.5 280.5,155.5C 280.447,152.939 281.447,150.939 283.5,149.5C 285.857,153.555 288.19,157.555 290.5,161.5C 290.167,162.167 289.833,162.833 289.5,163.5C 286.341,164.331 283.341,165.331 280.5,166.5C 279.167,166.5 277.833,166.5 276.5,166.5C 276.307,162.551 275.807,162.551 275,166.5C 268.747,170.712 261.913,173.379 254.5,174.5C 254.102,179.193 252.602,183.526 250,187.5C 249.617,186.944 249.117,186.611 248.5,186.5C 246.435,181.304 244.768,175.97 243.5,170.5C 243.263,169.209 243.596,168.209 244.5,167.5C 247.444,166.412 250.444,166.412 253.5,167.5C 253.33,166.178 253.663,165.011 254.5,164C 250.137,162.479 247.804,159.313 247.5,154.5C 254.879,154.485 262.212,154.652 269.5,155C 270.451,154.282 270.617,153.449 270,152.5C 266.79,151.299 264.123,149.299 262,146.5C 261.53,145.423 261.697,144.423 262.5,143.5C 264.833,142.167 267.167,140.833 269.5,139.5 Z"/></g>
<g><path style="opacity:1" fill="#c5c4d7" d="M 348.5,154.5 C 349.833,155.167 349.833,155.833 348.5,156.5C 345.833,155.833 345.833,155.167 348.5,154.5 Z"/></g>
<g><path style="opacity:1" fill="#696a9a" d="M 299.5,155.5 C 301.482,155.995 303.482,156.495 305.5,157C 303.942,157.21 302.609,157.71 301.5,158.5C 300.833,158.167 300.167,157.833 299.5,157.5C 299.5,156.833 299.5,156.167 299.5,155.5 Z"/></g>
<g><path style="opacity:1" fill="#4cdfe3" d="M 299.5,157.5 C 300.167,157.833 300.833,158.167 301.5,158.5C 304.167,161.5 306.833,164.5 309.5,167.5C 304.604,167.198 299.604,166.032 294.5,164C 293.748,163.329 293.414,162.496 293.5,161.5C 295.147,159.674 297.147,158.34 299.5,157.5 Z"/></g>
<g><path style="opacity:1" fill="#dad9e5" d="M 315.5,158.5 C 316.833,158.5 318.167,158.5 319.5,158.5C 319.723,161.114 318.556,162.781 316,163.5C 315.506,161.866 315.34,160.199 315.5,158.5 Z"/></g>
<g><path style="opacity:1" fill="#54cad5" d="M 240.5,153.5 C 239.373,154.122 238.373,154.955 237.5,156C 239.425,155.865 241.425,155.698 243.5,155.5C 244.124,155.917 244.457,156.584 244.5,157.5C 243.622,160.13 242.955,162.797 242.5,165.5C 236.464,167.979 230.464,167.979 224.5,165.5C 227.579,163.533 230.412,161.2 233,158.5C 233.74,157.251 233.573,156.251 232.5,155.5C 232.62,154.414 233.287,153.747 234.5,153.5C 236.673,152.418 238.673,152.418 240.5,153.5 Z"/></g>
<g><path style="opacity:1" fill="#e5950b" d="M 207.5,163.5 C 205.5,165.167 203.5,166.833 201.5,168.5C 200.833,168.5 200.167,168.5 199.5,168.5C 197.594,167.518 195.594,166.518 193.5,165.5C 197.597,164.233 201.764,163.233 206,162.5C 206.765,162.57 207.265,162.903 207.5,163.5 Z"/></g>
<g><path style="opacity:1" fill="#a71e27" d="M 207.5,163.5 C 207.833,163.5 208.167,163.5 208.5,163.5C 209.167,163.5 209.833,163.5 210.5,163.5C 211.301,165.042 211.634,166.708 211.5,168.5C 210.89,169.391 210.557,170.391 210.5,171.5C 208.122,173.878 205.455,175.878 202.5,177.5C 201.523,174.713 201.19,171.713 201.5,168.5C 203.5,166.833 205.5,165.167 207.5,163.5 Z"/></g>
<g><path style="opacity:1" fill="#d3a8a2" d="M 221.5,161.5 C 221.5,161.833 221.5,162.167 221.5,162.5C 221.5,163.833 220.833,164.5 219.5,164.5C 218.048,163.698 216.382,163.198 214.5,163C 216.92,162.71 219.254,162.21 221.5,161.5 Z"/></g>
<g><path style="opacity:1" fill="#9feaee" d="M 290.5,161.5 C 291.5,161.5 292.5,161.5 293.5,161.5C 293.414,162.496 293.748,163.329 294.5,164C 299.604,166.032 304.604,167.198 309.5,167.5C 311.19,167.856 312.19,168.856 312.5,170.5C 307.371,172.057 303.371,175.057 300.5,179.5C 299.833,179.5 299.5,179.833 299.5,180.5C 299.167,180.5 298.833,180.5 298.5,180.5C 296.771,174.036 293.771,168.369 289.5,163.5C 289.833,162.833 290.167,162.167 290.5,161.5 Z"/></g>
<g><path style="opacity:1" fill="#eccd66" d="M 197.5,154.5 C 200.972,156.738 204.638,158.738 208.5,160.5C 208.5,161.5 208.5,162.5 208.5,163.5C 208.167,163.5 207.833,163.5 207.5,163.5C 207.265,162.903 206.765,162.57 206,162.5C 201.764,163.233 197.597,164.233 193.5,165.5C 195.594,166.518 197.594,167.518 199.5,168.5C 199.5,169.167 199.5,169.833 199.5,170.5C 195.465,173.857 191.132,176.857 186.5,179.5C 185.957,179.44 185.624,179.107 185.5,178.5C 186.362,173.552 188.362,169.218 191.5,165.5C 191.167,164.833 190.833,164.167 190.5,163.5C 192.14,159.848 194.474,156.848 197.5,154.5 Z"/></g>
<g><path style="opacity:1" fill="#f1e2b5" d="M 186.5,145.5 C 187.167,145.5 187.833,145.5 188.5,145.5C 190.051,148.563 192.218,151.229 195,153.5C 195.838,152.001 196.671,151.668 197.5,152.5C 205.051,152.625 212.718,152.959 220.5,153.5C 219.71,154.401 218.71,155.068 217.5,155.5C 215.393,154.532 213.059,154.198 210.5,154.5C 210.205,156.735 210.539,158.735 211.5,160.5C 211.737,161.791 211.404,162.791 210.5,163.5C 209.833,163.5 209.167,163.5 208.5,163.5C 208.5,162.5 208.5,161.5 208.5,160.5C 209.461,158.735 209.795,156.735 209.5,154.5C 205.5,154.5 201.5,154.5 197.5,154.5C 194.474,156.848 192.14,159.848 190.5,163.5C 190.833,164.167 191.167,164.833 191.5,165.5C 188.362,169.218 186.362,173.552 185.5,178.5C 185.624,179.107 185.957,179.44 186.5,179.5C 186.5,180.167 186.833,180.5 187.5,180.5C 186.828,181.267 185.995,181.934 185,182.5C 184.501,186.152 184.335,189.818 184.5,193.5C 184.795,195.735 184.461,197.735 183.5,199.5C 183.608,197.486 182.942,195.82 181.5,194.5C 183.43,190.627 184.097,186.294 183.5,181.5C 180.5,181.5 177.5,181.5 174.5,181.5C 174.167,186.833 173.833,186.833 173.5,181.5C 168.968,181.818 164.634,181.485 160.5,180.5C 165.167,180.5 169.833,180.5 174.5,180.5C 174.724,178.213 175.391,176.047 176.5,174C 175.046,172.341 173.713,172.674 172.5,175C 170.833,175.667 169.167,175.667 167.5,175C 169.032,174.3 170.032,173.134 170.5,171.5C 169.333,169.167 168.167,166.833 167,164.5C 166.329,163.748 165.496,163.414 164.5,163.5C 164.5,162.5 164.5,161.5 164.5,160.5C 165.5,160.5 166.5,160.5 167.5,160.5C 167.5,160.833 167.5,161.167 167.5,161.5C 169.902,164.215 172.568,166.715 175.5,169C 176.448,169.483 177.448,169.649 178.5,169.5C 181.769,169.116 184.603,167.782 187,165.5C 187.91,163.055 187.076,161.722 184.5,161.5C 182.052,160.527 179.385,160.194 176.5,160.5C 182.523,160.071 188.189,158.238 193.5,155C 188.434,153.28 183.434,152.446 178.5,152.5C 178.414,151.504 178.748,150.671 179.5,150C 182.202,148.988 184.535,147.488 186.5,145.5 Z"/></g>
<g><path style="opacity:1" fill="#eed882" d="M 184.5,161.5 C 187.076,161.722 187.91,163.055 187,165.5C 184.603,167.782 181.769,169.116 178.5,169.5C 180.147,166.527 182.147,163.86 184.5,161.5 Z"/></g>
<g><path style="opacity:1" fill="#ebcb47" d="M 176.5,160.5 C 179.385,160.194 182.052,160.527 184.5,161.5C 182.147,163.86 180.147,166.527 178.5,169.5C 177.448,169.649 176.448,169.483 175.5,169C 172.568,166.715 169.902,164.215 167.5,161.5C 170.713,161.81 173.713,161.477 176.5,160.5 Z"/></g>
<g><path style="opacity:1" fill="#e5b802" d="M 197.5,154.5 C 201.5,154.5 205.5,154.5 209.5,154.5C 209.795,156.735 209.461,158.735 208.5,160.5C 204.638,158.738 200.972,156.738 197.5,154.5 Z"/></g>
<g><path style="opacity:1" fill="#8885ad" d="M 329.5,166.5 C 330.478,166.811 331.145,167.478 331.5,168.5C 330.273,169.59 329.44,170.924 329,172.5C 328.89,170.152 327.723,168.652 325.5,168C 327.058,167.79 328.391,167.29 329.5,166.5 Z"/></g>
<g><path style="opacity:1" fill="#f1de93" d="M 221.5,168.5 C 222.822,168.33 223.989,168.663 225,169.5C 227.041,173.084 229.208,176.584 231.5,180C 227.147,179.446 222.814,178.446 218.5,177C 216.68,176.8 215.347,175.966 214.5,174.5C 216.833,172.5 219.167,170.5 221.5,168.5 Z"/></g>
<g><path style="opacity:1" fill="#e4cfd3" d="M 211.5,168.5 C 212.167,168.833 212.833,169.167 213.5,169.5C 213.179,171.048 212.179,171.715 210.5,171.5C 210.557,170.391 210.89,169.391 211.5,168.5 Z"/></g>
<g><path style="opacity:1" fill="#f3e4a3" d="M 243.5,170.5 C 244.768,175.97 246.435,181.304 248.5,186.5C 248.5,187.833 248.5,189.167 248.5,190.5C 247.5,190.5 246.5,190.5 245.5,190.5C 245.918,189.778 246.584,189.278 247.5,189C 243.019,186.91 238.686,184.743 234.5,182.5C 235.352,177.387 237.685,173.053 241.5,169.5C 242.183,169.863 242.85,170.196 243.5,170.5 Z"/></g>
<g><path style="opacity:1" fill="#e5691b" d="M 199.5,170.5 C 200.629,172.628 200.796,174.961 200,177.5C 198.698,178.085 197.531,178.751 196.5,179.5C 193.713,180.477 190.713,180.81 187.5,180.5C 186.833,180.5 186.5,180.167 186.5,179.5C 191.132,176.857 195.465,173.857 199.5,170.5 Z"/></g>
<g><path style="opacity:1" fill="#f2bc95" d="M 199.5,168.5 C 200.167,168.5 200.833,168.5 201.5,168.5C 201.19,171.713 201.523,174.713 202.5,177.5C 202.5,178.833 201.833,179.5 200.5,179.5C 199.167,179.5 197.833,179.5 196.5,179.5C 197.531,178.751 198.698,178.085 200,177.5C 200.796,174.961 200.629,172.628 199.5,170.5C 199.5,169.833 199.5,169.167 199.5,168.5 Z"/></g>
<g><path style="opacity:1" fill="#ecd160" d="M 164.5,163.5 C 165.496,163.414 166.329,163.748 167,164.5C 168.167,166.833 169.333,169.167 170.5,171.5C 170.032,173.134 169.032,174.3 167.5,175C 169.167,175.667 170.833,175.667 172.5,175C 173.713,172.674 175.046,172.341 176.5,174C 175.391,176.047 174.724,178.213 174.5,180.5C 169.833,180.5 165.167,180.5 160.5,180.5C 160.167,180.5 159.833,180.5 159.5,180.5C 159.062,180.565 158.728,180.399 158.5,180C 159.167,179.667 159.833,179.333 160.5,179C 158.881,178.764 157.881,177.931 157.5,176.5C 159.566,172.034 161.9,167.701 164.5,163.5 Z"/></g>
<g><path style="opacity:1" fill="#adeced" d="M 280.5,166.5 C 274.925,168.58 273.925,172.247 277.5,177.5C 277,177.833 276.5,178.167 276,178.5C 269.868,176.877 263.702,176.544 257.5,177.5C 259.948,182.736 262.615,187.736 265.5,192.5C 261.067,190.699 256.4,190.033 251.5,190.5C 250.5,190.5 249.5,190.5 248.5,190.5C 248.5,189.167 248.5,187.833 248.5,186.5C 249.117,186.611 249.617,186.944 250,187.5C 252.602,183.526 254.102,179.193 254.5,174.5C 261.913,173.379 268.747,170.712 275,166.5C 275.807,162.551 276.307,162.551 276.5,166.5C 277.833,166.5 279.167,166.5 280.5,166.5 Z"/></g>
<g><path style="opacity:1" fill="#f3e29e" d="M 212.5,177.5 C 213.117,177.611 213.617,177.944 214,178.5C 215.83,185.472 217.163,192.472 218,199.5C 213.074,196.286 207.907,193.452 202.5,191C 201.177,190.184 200.511,189.017 200.5,187.5C 204.208,183.79 208.208,180.457 212.5,177.5 Z"/></g>
<g><path style="opacity:1" fill="#c80f14" d="M 196.5,179.5 C 197.833,179.5 199.167,179.5 200.5,179.5C 195.488,184.51 190.155,189.177 184.5,193.5C 184.335,189.818 184.501,186.152 185,182.5C 185.995,181.934 186.828,181.267 187.5,180.5C 190.713,180.81 193.713,180.477 196.5,179.5 Z"/></g>
<g><path style="opacity:1" fill="#55c4d2" d="M 289.5,163.5 C 293.771,168.369 296.771,174.036 298.5,180.5C 295.819,183.192 294.486,186.525 294.5,190.5C 293.222,190.782 292.222,191.449 291.5,192.5C 291.737,191.209 291.404,190.209 290.5,189.5C 287.422,185.262 283.422,181.929 278.5,179.5C 278.167,180 277.833,180.5 277.5,181C 279.15,185.346 279.817,189.846 279.5,194.5C 275.582,194.729 271.915,195.729 268.5,197.5C 267.925,195.589 266.925,193.922 265.5,192.5C 262.615,187.736 259.948,182.736 257.5,177.5C 263.702,176.544 269.868,176.877 276,178.5C 276.5,178.167 277,177.833 277.5,177.5C 273.925,172.247 274.925,168.58 280.5,166.5C 283.341,165.331 286.341,164.331 289.5,163.5 Z"/></g>
<g><path style="opacity:1" fill="#1d6393" d="M 300.5,179.5 C 302.861,179.674 305.194,180.007 307.5,180.5C 306.237,185.032 304.403,189.365 302,193.5C 300.841,189.237 300.007,184.904 299.5,180.5C 299.5,179.833 299.833,179.5 300.5,179.5 Z"/></g>
<g><path style="opacity:1" fill="#f2dc86" d="M 159.5,180.5 C 159.833,180.5 160.167,180.5 160.5,180.5C 164.634,181.485 168.968,181.818 173.5,181.5C 173.833,186.833 174.167,186.833 174.5,181.5C 177.5,181.5 180.5,181.5 183.5,181.5C 184.097,186.294 183.43,190.627 181.5,194.5C 179.708,194.634 178.042,194.301 176.5,193.5C 170.999,190.065 165.333,186.565 159.5,183C 158.402,182.23 158.402,181.397 159.5,180.5 Z"/></g>
<g><path style="opacity:1" fill="#ebeaf1" d="M 341.5,182.5 C 341.5,182.833 341.5,183.167 341.5,183.5C 340.791,184.404 339.791,184.737 338.5,184.5C 338.238,183.022 338.571,181.689 339.5,180.5C 340.522,180.855 341.189,181.522 341.5,182.5 Z"/></g>
<g><path style="opacity:1" fill="#eddb96" d="M 154.5,182.5 C 156.299,188.009 157.965,193.676 159.5,199.5C 159.137,200.183 158.804,200.85 158.5,201.5C 154.117,204.358 149.45,206.692 144.5,208.5C 147.658,199.68 150.992,191.013 154.5,182.5 Z"/></g>
<g><path style="opacity:1" fill="#f4e6b4" d="M 157.5,176.5 C 157.881,177.931 158.881,178.764 160.5,179C 159.833,179.333 159.167,179.667 158.5,180C 158.728,180.399 159.062,180.565 159.5,180.5C 158.402,181.397 158.402,182.23 159.5,183C 165.333,186.565 170.999,190.065 176.5,193.5C 176.5,194.167 176.167,194.5 175.5,194.5C 174.833,194.5 174.167,194.5 173.5,194.5C 168.68,196.074 164.347,198.407 160.5,201.5C 159.833,201.5 159.167,201.5 158.5,201.5C 158.804,200.85 159.137,200.183 159.5,199.5C 157.965,193.676 156.299,188.009 154.5,182.5C 154.455,179.923 155.455,177.923 157.5,176.5 Z"/></g>
<g><path style="opacity:1" fill="#e5881a" d="M 232.5,196.5 C 231.722,199.539 230.388,202.206 228.5,204.5C 226.574,202.707 224.241,201.707 221.5,201.5C 221.343,200.127 221.51,198.793 222,197.5C 225.333,192.833 228.667,188.167 232,183.5C 232.266,187.974 232.433,192.307 232.5,196.5 Z"/></g>
<g><path style="opacity:1" fill="#ecd163" d="M 234.5,182.5 C 238.686,184.743 243.019,186.91 247.5,189C 246.584,189.278 245.918,189.778 245.5,190.5C 242.061,192.204 238.395,193.538 234.5,194.5C 233.209,190.399 233.209,186.399 234.5,182.5 Z"/></g>
<g><path style="opacity:1" fill="#5f5990" d="M 341.5,183.5 C 341.5,183.167 341.5,182.833 341.5,182.5C 346.167,182.833 350.833,183.167 355.5,183.5C 355.762,186.252 355.762,189.252 355.5,192.5C 354.79,190.107 354.123,187.607 353.5,185C 349.534,184.172 345.534,183.672 341.5,183.5 Z"/></g>
<g><path style="opacity:1" fill="#5098b6" d="M 312.5,170.5 C 310.116,174.69 309.949,179.023 312,183.5C 314.694,186.892 316.86,190.559 318.5,194.5C 317.081,195.451 315.415,195.784 313.5,195.5C 313.167,191.5 312.833,191.5 312.5,195.5C 307.341,195.818 302.341,195.152 297.5,193.5C 296.167,192.833 295.167,191.833 294.5,190.5C 294.486,186.525 295.819,183.192 298.5,180.5C 298.833,180.5 299.167,180.5 299.5,180.5C 300.007,184.904 300.841,189.237 302,193.5C 304.403,189.365 306.237,185.032 307.5,180.5C 305.194,180.007 302.861,179.674 300.5,179.5C 303.371,175.057 307.371,172.057 312.5,170.5 Z"/></g>
<g><path style="opacity:1" fill="#2e6b98" d="M 290.5,189.5 C 291.404,190.209 291.737,191.209 291.5,192.5C 290.739,196.784 289.405,200.784 287.5,204.5C 286.833,205.167 286.167,205.833 285.5,206.5C 284.376,202.461 283.043,198.461 281.5,194.5C 284.403,192.645 287.403,190.978 290.5,189.5 Z"/></g>
<g><path style="opacity:1" fill="#15407c" d="M 294.5,190.5 C 295.167,191.833 296.167,192.833 297.5,193.5C 298.6,194.605 299.267,195.938 299.5,197.5C 295.5,200.5 291.5,203.5 287.5,206.5C 287.5,205.833 287.5,205.167 287.5,204.5C 289.405,200.784 290.739,196.784 291.5,192.5C 292.222,191.449 293.222,190.782 294.5,190.5 Z"/></g>
<g><path style="opacity:1" fill="#efdb93" d="M 197.5,191.5 C 198.649,191.791 199.316,192.624 199.5,194C 201.133,200.288 202.133,206.455 202.5,212.5C 201.833,212.5 201.167,212.5 200.5,212.5C 199.198,210.972 197.531,209.972 195.5,209.5C 197.199,209.66 198.866,209.494 200.5,209C 197.462,206.297 194.795,203.297 192.5,200C 191.906,199.536 191.239,199.369 190.5,199.5C 192.372,196.418 194.705,193.751 197.5,191.5 Z"/></g>
<g><path style="opacity:1" fill="#f6ecc9" d="M 224.5,165.5 C 230.464,167.979 236.464,167.979 242.5,165.5C 243.5,165.833 244.167,166.5 244.5,167.5C 243.596,168.209 243.263,169.209 243.5,170.5C 242.85,170.196 242.183,169.863 241.5,169.5C 237.685,173.053 235.352,177.387 234.5,182.5C 233.209,186.399 233.209,190.399 234.5,194.5C 234.5,194.833 234.5,195.167 234.5,195.5C 233.833,195.833 233.167,196.167 232.5,196.5C 232.433,192.307 232.266,187.974 232,183.5C 228.667,188.167 225.333,192.833 222,197.5C 221.51,198.793 221.343,200.127 221.5,201.5C 219.692,201.491 218.025,201.991 216.5,203C 212.334,205.39 208.667,208.223 205.5,211.5C 205.5,211.833 205.5,212.167 205.5,212.5C 205.167,212.5 204.833,212.5 204.5,212.5C 203.833,212.5 203.167,212.5 202.5,212.5C 202.133,206.455 201.133,200.288 199.5,194C 199.316,192.624 198.649,191.791 197.5,191.5C 197.468,189.381 198.468,188.048 200.5,187.5C 200.511,189.017 201.177,190.184 202.5,191C 207.907,193.452 213.074,196.286 218,199.5C 217.163,192.472 215.83,185.472 214,178.5C 213.617,177.944 213.117,177.611 212.5,177.5C 212.427,175.973 213.094,174.973 214.5,174.5C 215.347,175.966 216.68,176.8 218.5,177C 222.814,178.446 227.147,179.446 231.5,180C 229.208,176.584 227.041,173.084 225,169.5C 223.989,168.663 222.822,168.33 221.5,168.5C 221.5,166.5 222.5,165.5 224.5,165.5 Z"/></g>
<g><path style="opacity:1" fill="#e5961d" d="M 245.5,190.5 C 246.5,190.5 247.5,190.5 248.5,190.5C 248.196,191.15 247.863,191.817 247.5,192.5C 248.244,195.443 248.744,198.443 249,201.5C 249.333,198.167 249.667,194.833 250,191.5C 251.107,192.712 251.607,192.379 251.5,190.5C 256.4,190.033 261.067,190.699 265.5,192.5C 266.925,193.922 267.925,195.589 268.5,197.5C 268.5,197.833 268.5,198.167 268.5,198.5C 266.25,201.999 264.25,205.665 262.5,209.5C 261.833,209.5 261.167,209.5 260.5,209.5C 260.443,208.391 260.11,207.391 259.5,206.5C 259.595,200.205 258.595,200.205 256.5,206.5C 254.037,208.461 251.703,210.628 249.5,213C 246.829,213.833 244.496,213.333 242.5,211.5C 242.5,210.833 242.167,210.5 241.5,210.5C 238.727,206.422 236.394,201.422 234.5,195.5C 234.5,195.167 234.5,194.833 234.5,194.5C 238.395,193.538 242.061,192.204 245.5,190.5 Z"/></g>
<g><path style="opacity:1" fill="#dfb676" d="M 248.5,190.5 C 249.5,190.5 250.5,190.5 251.5,190.5C 251.607,192.379 251.107,192.712 250,191.5C 249.667,194.833 249.333,198.167 249,201.5C 248.744,198.443 248.244,195.443 247.5,192.5C 247.863,191.817 248.196,191.15 248.5,190.5 Z"/></g>
<g><path style="opacity:1" fill="#4392b2" d="M 290.5,189.5 C 287.403,190.978 284.403,192.645 281.5,194.5C 283.043,198.461 284.376,202.461 285.5,206.5C 285.5,207.167 285.167,207.5 284.5,207.5C 280.354,204.922 276.354,202.089 272.5,199C 271.207,198.51 269.873,198.343 268.5,198.5C 268.5,198.167 268.5,197.833 268.5,197.5C 271.915,195.729 275.582,194.729 279.5,194.5C 279.817,189.846 279.15,185.346 277.5,181C 277.833,180.5 278.167,180 278.5,179.5C 283.422,181.929 287.422,185.262 290.5,189.5 Z"/></g>
<g><path style="opacity:1" fill="#e5811b" d="M 173.5,194.5 C 172.302,197.426 171.302,200.426 170.5,203.5C 168.176,203.877 167.509,204.877 168.5,206.5C 168.5,206.833 168.5,207.167 168.5,207.5C 167.416,210.004 166.083,212.337 164.5,214.5C 162.676,210.435 161.342,206.102 160.5,201.5C 164.347,198.407 168.68,196.074 173.5,194.5 Z"/></g>
<g><path style="opacity:1" fill="#c31f21" d="M 176.5,193.5 C 178.042,194.301 179.708,194.634 181.5,194.5C 182.942,195.82 183.608,197.486 183.5,199.5C 182.833,200.833 181.833,201.833 180.5,202.5C 179.175,201.047 178.342,201.381 178,203.5C 176.953,200.534 176.119,197.534 175.5,194.5C 176.167,194.5 176.5,194.167 176.5,193.5 Z"/></g>
<g><path style="opacity:1" fill="#f4f4f7" d="M 346.5,194.5 C 348.465,194.948 348.798,195.948 347.5,197.5C 345.481,196.867 345.147,195.867 346.5,194.5 Z"/></g>
<g><path style="opacity:1" fill="#a33642" d="M 173.5,194.5 C 174.167,194.5 174.833,194.5 175.5,194.5C 176.119,197.534 176.953,200.534 178,203.5C 178.342,201.381 179.175,201.047 180.5,202.5C 179.5,204.167 178.167,205.5 176.5,206.5C 174.735,205.539 172.735,205.205 170.5,205.5C 170.5,204.833 170.5,204.167 170.5,203.5C 171.302,200.426 172.302,197.426 173.5,194.5 Z"/></g>
<g><path style="opacity:1" fill="#153e7b" d="M 304.5,203.5 C 302.692,202.082 302.025,200.082 302.5,197.5C 318.791,194.79 319.457,196.79 304.5,203.5 Z"/></g>
<g><path style="opacity:1" fill="#5fc5d3" d="M 318.5,194.5 C 322.969,196.547 327.636,198.213 332.5,199.5C 329.072,203.69 326.738,208.357 325.5,213.5C 326.791,213.263 327.791,213.596 328.5,214.5C 327.5,214.5 326.5,214.5 325.5,214.5C 325.528,217.916 326.528,220.916 328.5,223.5C 328.5,224.167 328.5,224.833 328.5,225.5C 327.833,225.5 327.167,225.5 326.5,225.5C 323.713,224.523 320.713,224.19 317.5,224.5C 317.5,226.167 317.5,227.833 317.5,229.5C 316.412,226.943 315.412,224.276 314.5,221.5C 315.479,218.375 315.813,215.042 315.5,211.5C 316.552,211.649 317.552,211.483 318.5,211C 313.177,209.333 308.177,207.166 303.5,204.5C 304.167,204.5 304.5,204.167 304.5,203.5C 319.457,196.79 318.791,194.79 302.5,197.5C 301.5,197.5 300.5,197.5 299.5,197.5C 299.267,195.938 298.6,194.605 297.5,193.5C 302.341,195.152 307.341,195.818 312.5,195.5C 312.833,191.5 313.167,191.5 313.5,195.5C 315.415,195.784 317.081,195.451 318.5,194.5 Z"/></g>
<g><path style="opacity:1" fill="#efd993" d="M 234.5,195.5 C 236.394,201.422 238.727,206.422 241.5,210.5C 240.5,210.5 239.5,210.5 238.5,210.5C 236.664,208.412 234.331,207.079 231.5,206.5C 230.5,205.833 229.5,205.167 228.5,204.5C 230.388,202.206 231.722,199.539 232.5,196.5C 233.167,196.167 233.833,195.833 234.5,195.5 Z"/></g>
<g><path style="opacity:1" fill="#276997" d="M 299.5,197.5 C 300.5,197.5 301.5,197.5 302.5,197.5C 302.025,200.082 302.692,202.082 304.5,203.5C 304.5,204.167 304.167,204.5 303.5,204.5C 302.391,204.557 301.391,204.89 300.5,205.5C 296.084,207.071 291.751,207.404 287.5,206.5C 291.5,203.5 295.5,200.5 299.5,197.5 Z"/></g>
<g><path style="opacity:1" fill="#57518b" d="M 354.5,193.5 C 354.331,200.187 353.831,206.854 353,213.5C 352.333,214.833 351.667,214.833 351,213.5C 350.308,212.563 350.475,211.897 351.5,211.5C 352.5,205.5 353.5,199.5 354.5,193.5 Z"/></g>
<g><path style="opacity:1" fill="#33719c" d="M 268.5,198.5 C 269.873,198.343 271.207,198.51 272.5,199C 276.354,202.089 280.354,204.922 284.5,207.5C 283.833,208.167 283.167,208.833 282.5,209.5C 282.167,209.5 281.833,209.5 281.5,209.5C 278.455,207.952 275.122,206.952 271.5,206.5C 267.88,207.793 264.88,209.793 262.5,212.5C 262.5,211.5 262.5,210.5 262.5,209.5C 264.25,205.665 266.25,201.999 268.5,198.5 Z"/></g>
<g><path style="opacity:1" fill="#e5be2b" d="M 190.5,199.5 C 191.239,199.369 191.906,199.536 192.5,200C 194.795,203.297 197.462,206.297 200.5,209C 198.866,209.494 197.199,209.66 195.5,209.5C 193.265,209.795 191.265,209.461 189.5,208.5C 187.249,207.985 185.249,206.985 183.5,205.5C 185.833,203.5 188.167,201.5 190.5,199.5 Z"/></g>
<g><path style="opacity:1" fill="#f2a29e" d="M 158.5,201.5 C 159.167,201.5 159.833,201.5 160.5,201.5C 161.342,206.102 162.676,210.435 164.5,214.5C 164.611,215.117 164.944,215.617 165.5,216C 168.146,216.497 170.813,216.664 173.5,216.5C 173.833,216.5 174.167,216.5 174.5,216.5C 174.167,217.5 173.5,218.167 172.5,218.5C 169.833,217.167 167.167,217.167 164.5,218.5C 163.5,218.5 162.5,218.5 161.5,218.5C 161.586,217.504 161.252,216.671 160.5,216C 156.162,214.497 151.828,212.997 147.5,211.5C 146.584,211.543 145.917,211.876 145.5,212.5C 142.116,211.756 141.782,210.423 144.5,208.5C 149.45,206.692 154.117,204.358 158.5,201.5 Z"/></g>
<g><path style="opacity:1" fill="#e5a129" d="M 221.5,201.5 C 224.241,201.707 226.574,202.707 228.5,204.5C 229.5,205.167 230.5,205.833 231.5,206.5C 229.478,207.507 228.145,209.174 227.5,211.5C 225.973,211.427 224.973,212.094 224.5,213.5C 218.177,212.779 211.844,212.112 205.5,211.5C 208.667,208.223 212.334,205.39 216.5,203C 218.025,201.991 219.692,201.491 221.5,201.5 Z"/></g>
<g><path style="opacity:1" fill="#e2b48b" d="M 259.5,206.5 C 258.5,206.5 257.5,206.5 256.5,206.5C 258.595,200.205 259.595,200.205 259.5,206.5 Z"/></g>
<g><path style="opacity:1" fill="#f7e4df" d="M 170.5,203.5 C 170.5,204.167 170.5,204.833 170.5,205.5C 170.5,205.833 170.5,206.167 170.5,206.5C 169.833,206.5 169.167,206.5 168.5,206.5C 167.509,204.877 168.176,203.877 170.5,203.5 Z"/></g>
<g><path style="opacity:1" fill="#e50302" d="M 170.5,205.5 C 172.735,205.205 174.735,205.539 176.5,206.5C 175.781,208.764 175.448,211.097 175.5,213.5C 173.133,211.802 171.466,209.469 170.5,206.5C 170.5,206.167 170.5,205.833 170.5,205.5 Z"/></g>
<g><path style="opacity:1" fill="#eddac4" d="M 183.5,205.5 C 185.249,206.985 187.249,207.985 189.5,208.5C 186.918,208.025 184.918,208.692 183.5,210.5C 182.833,209.833 182.167,209.167 181.5,208.5C 181.285,206.821 181.952,205.821 183.5,205.5 Z"/></g>
<g><path style="opacity:1" fill="#e57210" d="M 231.5,206.5 C 234.331,207.079 236.664,208.412 238.5,210.5C 234.709,210.659 231.042,211.325 227.5,212.5C 227.5,212.167 227.5,211.833 227.5,211.5C 228.145,209.174 229.478,207.507 231.5,206.5 Z"/></g>
<g><path style="opacity:1" fill="#79e3e7" d="M 303.5,204.5 C 308.177,207.166 313.177,209.333 318.5,211C 317.552,211.483 316.552,211.649 315.5,211.5C 315.813,215.042 315.479,218.375 314.5,221.5C 311.883,220.214 309.55,218.547 307.5,216.5C 305.649,213.622 303.982,210.622 302.5,207.5C 300.58,210.339 298.913,213.339 297.5,216.5C 292.869,217.662 288.202,217.828 283.5,217C 288.167,214.333 292.833,211.667 297.5,209C 299.063,208.241 300.063,207.074 300.5,205.5C 301.391,204.89 302.391,204.557 303.5,204.5 Z"/></g>
<g><path style="opacity:1" fill="#c3000c" d="M 168.5,207.5 C 170.924,210.008 172.59,213.008 173.5,216.5C 170.813,216.664 168.146,216.497 165.5,216C 164.944,215.617 164.611,215.117 164.5,214.5C 166.083,212.337 167.416,210.004 168.5,207.5 Z"/></g>
<g><path style="opacity:1" fill="#e58e1f" d="M 189.5,208.5 C 191.265,209.461 193.265,209.795 195.5,209.5C 197.531,209.972 199.198,210.972 200.5,212.5C 196.653,215.593 192.32,217.926 187.5,219.5C 187.068,218.29 186.401,217.29 185.5,216.5C 184.262,214.786 183.595,212.786 183.5,210.5C 184.918,208.692 186.918,208.025 189.5,208.5 Z"/></g>
<g><path style="opacity:1" fill="#d15057" d="M 168.5,207.5 C 168.5,207.167 168.5,206.833 168.5,206.5C 169.167,206.5 169.833,206.5 170.5,206.5C 171.466,209.469 173.133,211.802 175.5,213.5C 175.443,214.609 175.11,215.609 174.5,216.5C 174.167,216.5 173.833,216.5 173.5,216.5C 172.59,213.008 170.924,210.008 168.5,207.5 Z"/></g>
<g><path style="opacity:1" fill="#47d9e0" d="M 281.5,209.5 C 281.833,209.5 282.167,209.5 282.5,209.5C 283.376,209.369 284.043,209.702 284.5,210.5C 283.544,212.075 282.877,213.742 282.5,215.5C 278.108,216.317 274.108,215.317 270.5,212.5C 273.907,210.926 277.573,209.926 281.5,209.5 Z"/></g>
<g><path style="opacity:1" fill="#e65857" d="M 181.5,208.5 C 182.167,209.167 182.833,209.833 183.5,210.5C 183.595,212.786 184.262,214.786 185.5,216.5C 185.567,217.959 185.234,219.292 184.5,220.5C 182.574,221.486 180.574,222.486 178.5,223.5C 178.5,222.5 178.5,221.5 178.5,220.5C 179.09,216.397 180.09,212.397 181.5,208.5 Z"/></g>
<g><path style="opacity:1" fill="#fbfbfb" d="M 260.5,209.5 C 261.167,209.5 261.833,209.5 262.5,209.5C 262.5,210.5 262.5,211.5 262.5,212.5C 261.833,212.5 261.167,212.5 260.5,212.5C 260.5,211.5 260.5,210.5 260.5,209.5 Z"/></g>
<g><path style="opacity:1" fill="#e96c6e" d="M 161.5,218.5 C 159.073,222.105 156.407,225.605 153.5,229C 154.094,229.464 154.761,229.631 155.5,229.5C 154.1,230.1 153.1,231.1 152.5,232.5C 151.5,232.5 150.5,232.5 149.5,232.5C 148.486,225.775 147.152,219.108 145.5,212.5C 145.917,211.876 146.584,211.543 147.5,211.5C 151.828,212.997 156.162,214.497 160.5,216C 161.252,216.671 161.586,217.504 161.5,218.5 Z"/></g>
<g><path style="opacity:1" fill="#e47905" d="M 205.5,212.5 C 205.5,212.167 205.5,211.833 205.5,211.5C 211.844,212.112 218.177,212.779 224.5,213.5C 224.5,213.833 224.5,214.167 224.5,214.5C 222.727,217.06 220.727,219.393 218.5,221.5C 217.078,221.291 215.745,220.791 214.5,220C 211.838,217.015 208.838,214.515 205.5,212.5 Z"/></g>
<g><path style="opacity:1" fill="#4e194d" d="M 256.5,206.5 C 257.5,206.5 258.5,206.5 259.5,206.5C 260.11,207.391 260.443,208.391 260.5,209.5C 260.5,210.5 260.5,211.5 260.5,212.5C 256.149,213.17 251.816,214.004 247.5,215C 244.568,218.442 241.235,221.275 237.5,223.5C 236.957,223.44 236.624,223.107 236.5,222.5C 237.765,219.204 238.932,215.871 240,212.5C 240.671,211.748 241.504,211.414 242.5,211.5C 244.496,213.333 246.829,213.833 249.5,213C 251.703,210.628 254.037,208.461 256.5,206.5 Z"/></g>
<g><path style="opacity:1" fill="#faf2ea" d="M 227.5,211.5 C 227.5,211.833 227.5,212.167 227.5,212.5C 227.5,213.167 227.5,213.833 227.5,214.5C 227.167,214.5 226.833,214.5 226.5,214.5C 225.833,214.5 225.167,214.5 224.5,214.5C 224.5,214.167 224.5,213.833 224.5,213.5C 224.973,212.094 225.973,211.427 227.5,211.5 Z"/></g>
<g><path style="opacity:1" fill="#e46f10" d="M 200.5,212.5 C 201.167,212.5 201.833,212.5 202.5,212.5C 201.443,217.651 199.776,222.651 197.5,227.5C 193.873,225.206 190.539,222.54 187.5,219.5C 192.32,217.926 196.653,215.593 200.5,212.5 Z"/></g>
<g><path style="opacity:1" fill="#e39628" d="M 204.5,212.5 C 204.833,212.5 205.167,212.5 205.5,212.5C 208.838,214.515 211.838,217.015 214.5,220C 215.745,220.791 217.078,221.291 218.5,221.5C 218.5,221.833 218.5,222.167 218.5,222.5C 217.167,222.5 216.5,223.167 216.5,224.5C 214.196,227.141 211.862,229.808 209.5,232.5C 208.833,232.5 208.167,232.5 207.5,232.5C 205.467,226 204.467,219.334 204.5,212.5 Z"/></g>
<g><path style="opacity:1" fill="#96e4e8" d="M 270.5,212.5 C 274.108,215.317 278.108,216.317 282.5,215.5C 282.5,216.833 282.5,218.167 282.5,219.5C 280.801,219.34 279.134,219.506 277.5,220C 274.667,222.167 271.833,224.333 269,226.5C 267.691,224.024 265.858,222.024 263.5,220.5C 261.981,223.044 260.648,225.711 259.5,228.5C 259.957,229.298 260.624,229.631 261.5,229.5C 260.5,230.167 259.5,230.833 258.5,231.5C 254.802,232.682 251.469,234.349 248.5,236.5C 249.385,232.064 250.385,227.731 251.5,223.5C 255.263,222.299 258.93,220.799 262.5,219C 261.944,218.617 261.611,218.117 261.5,217.5C 264.008,215.076 267.008,213.41 270.5,212.5 Z"/></g>
<g><path style="opacity:1" fill="#c42d26" d="M 202.5,212.5 C 203.167,212.5 203.833,212.5 204.5,212.5C 204.467,219.334 205.467,226 207.5,232.5C 207.5,233.167 207.167,233.5 206.5,233.5C 203.378,232.439 200.378,231.105 197.5,229.5C 197.5,228.833 197.5,228.167 197.5,227.5C 199.776,222.651 201.443,217.651 202.5,212.5 Z"/></g>
<g><path style="opacity:1" fill="#508daf" d="M 328.5,214.5 C 331.789,215.374 335.123,216.041 338.5,216.5C 339.429,217.315 340.429,218.148 341.5,219C 339.557,218.695 337.557,218.695 335.5,219C 333.283,220.723 330.95,222.223 328.5,223.5C 326.528,220.916 325.528,217.916 325.5,214.5C 326.5,214.5 327.5,214.5 328.5,214.5 Z"/></g>
<g><path style="opacity:1" fill="#58b3c8" d="M 287.5,204.5 C 287.5,205.167 287.5,205.833 287.5,206.5C 291.751,207.404 296.084,207.071 300.5,205.5C 300.063,207.074 299.063,208.241 297.5,209C 292.833,211.667 288.167,214.333 283.5,217C 288.202,217.828 292.869,217.662 297.5,216.5C 298.913,213.339 300.58,210.339 302.5,207.5C 303.982,210.622 305.649,213.622 307.5,216.5C 305.184,220.794 303.85,225.46 303.5,230.5C 303.167,230.5 302.833,230.5 302.5,230.5C 301.833,229.5 301.167,228.5 300.5,227.5C 299.431,225.031 298.098,222.698 296.5,220.5C 293.421,223.65 291.087,227.317 289.5,231.5C 289.5,232.5 289.5,233.5 289.5,234.5C 288.391,234.557 287.391,234.89 286.5,235.5C 286.5,234.833 286.5,234.167 286.5,233.5C 285.677,228.852 284.01,224.518 281.5,220.5C 279.215,225.639 277.549,230.972 276.5,236.5C 274.262,239.972 272.262,243.638 270.5,247.5C 269.596,248.209 269.263,249.209 269.5,250.5C 266.31,250.559 263.143,250.893 260,251.5C 258.319,251.608 257.152,252.275 256.5,253.5C 255.5,253.5 254.5,253.5 253.5,253.5C 251.952,253.179 251.285,252.179 251.5,250.5C 257.303,247.235 260.303,242.235 260.5,235.5C 261.507,236.828 262.84,237.828 264.5,238.5C 267.984,237.633 271.317,236.466 274.5,235C 273.025,232.691 271.358,230.524 269.5,228.5C 266.963,228.305 264.297,228.639 261.5,229.5C 260.624,229.631 259.957,229.298 259.5,228.5C 260.648,225.711 261.981,223.044 263.5,220.5C 265.858,222.024 267.691,224.024 269,226.5C 271.833,224.333 274.667,222.167 277.5,220C 279.134,219.506 280.801,219.34 282.5,219.5C 282.5,218.167 282.5,216.833 282.5,215.5C 282.877,213.742 283.544,212.075 284.5,210.5C 284.043,209.702 283.376,209.369 282.5,209.5C 283.167,208.833 283.833,208.167 284.5,207.5C 285.167,207.5 285.5,207.167 285.5,206.5C 286.167,205.833 286.833,205.167 287.5,204.5 Z"/></g>
<g><path style="opacity:1" fill="#e35b0a" d="M 172.5,218.5 C 170.5,220.833 168.5,223.167 166.5,225.5C 166.167,225.5 165.833,225.5 165.5,225.5C 165.007,223.194 164.674,220.861 164.5,218.5C 167.167,217.167 169.833,217.167 172.5,218.5 Z"/></g>
<g><path style="opacity:1" fill="#df1715" d="M 261.5,217.5 C 261.611,218.117 261.944,218.617 262.5,219C 258.93,220.799 255.263,222.299 251.5,223.5C 250.4,222.395 249.733,221.062 249.5,219.5C 253.36,218.196 257.36,217.529 261.5,217.5 Z"/></g>
<g><path style="opacity:1" fill="#ec524d" d="M 161.5,218.5 C 162.5,218.5 163.5,218.5 164.5,218.5C 164.674,220.861 165.007,223.194 165.5,225.5C 164.29,225.932 163.29,226.599 162.5,227.5C 160.035,227.767 157.701,228.434 155.5,229.5C 154.761,229.631 154.094,229.464 153.5,229C 156.407,225.605 159.073,222.105 161.5,218.5 Z"/></g>
<g><path style="opacity:1" fill="#e54e09" d="M 184.5,220.5 C 186.454,225.392 187.454,230.726 187.5,236.5C 184.5,232.5 181.5,228.5 178.5,224.5C 178.5,224.167 178.5,223.833 178.5,223.5C 180.574,222.486 182.574,221.486 184.5,220.5 Z"/></g>
<g><path style="opacity:1" fill="#bd3d41" d="M 249.5,219.5 C 249.733,221.062 250.4,222.395 251.5,223.5C 250.833,224.167 250.167,224.833 249.5,225.5C 247.139,225.674 244.806,226.007 242.5,226.5C 242.5,225.833 242.5,225.167 242.5,224.5C 244.573,222.42 246.907,220.754 249.5,219.5 Z"/></g>
<g><path style="opacity:1" fill="#3589ac" d="M 286.5,233.5 C 283.167,234.5 279.833,235.5 276.5,236.5C 277.549,230.972 279.215,225.639 281.5,220.5C 284.01,224.518 285.677,228.852 286.5,233.5 Z"/></g>
<g><path style="opacity:1" fill="#143676" d="M 300.5,227.5 C 300.423,228.75 299.756,229.583 298.5,230C 295.522,230.696 292.522,231.196 289.5,231.5C 291.087,227.317 293.421,223.65 296.5,220.5C 298.098,222.698 299.431,225.031 300.5,227.5 Z"/></g>
<g><path style="opacity:1" fill="#d7cdda" d="M 178.5,220.5 C 178.5,221.5 178.5,222.5 178.5,223.5C 178.5,223.833 178.5,224.167 178.5,224.5C 177.833,224.5 177.167,224.5 176.5,224.5C 174.998,222.171 175.664,220.837 178.5,220.5 Z"/></g>
<g><path style="opacity:1" fill="#f0a29e" d="M 185.5,216.5 C 186.401,217.29 187.068,218.29 187.5,219.5C 190.539,222.54 193.873,225.206 197.5,227.5C 197.5,228.167 197.5,228.833 197.5,229.5C 197.5,231.167 197.5,232.833 197.5,234.5C 196.71,233.391 196.21,232.058 196,230.5C 192.774,232.869 190.608,235.869 189.5,239.5C 188.833,239.5 188.167,239.5 187.5,239.5C 186.833,239.5 186.5,239.167 186.5,238.5C 186.833,237.833 187.167,237.167 187.5,236.5C 187.454,230.726 186.454,225.392 184.5,220.5C 185.234,219.292 185.567,217.959 185.5,216.5 Z"/></g>
<g><path style="opacity:1" fill="#d2d1e0" d="M 345.5,222.5 C 346.708,221.218 348.042,221.218 349.5,222.5C 348.192,223.626 346.858,223.626 345.5,222.5 Z"/></g>
<g><path style="opacity:1" fill="#f6efef" d="M 218.5,222.5 C 218.5,222.833 218.5,223.167 218.5,223.5C 218.158,224.338 217.492,224.672 216.5,224.5C 216.5,223.167 217.167,222.5 218.5,222.5 Z"/></g>
<g><path style="opacity:1" fill="#34749e" d="M 307.5,216.5 C 309.55,218.547 311.883,220.214 314.5,221.5C 315.412,224.276 316.412,226.943 317.5,229.5C 318.785,232.589 319.451,235.922 319.5,239.5C 319.5,240.167 319.167,240.5 318.5,240.5C 313.32,237.412 308.32,234.078 303.5,230.5C 303.85,225.46 305.184,220.794 307.5,216.5 Z"/></g>
<g><path style="opacity:1" fill="#143776" d="M 326.5,225.5 C 324.306,230.08 322.306,234.746 320.5,239.5C 320.167,239.5 319.833,239.5 319.5,239.5C 319.451,235.922 318.785,232.589 317.5,229.5C 317.5,227.833 317.5,226.167 317.5,224.5C 320.713,224.19 323.713,224.523 326.5,225.5 Z"/></g>
<g><path style="opacity:1" fill="#eb403f" d="M 249.5,225.5 C 246.143,229.852 242.809,234.185 239.5,238.5C 238.637,239.463 237.97,239.463 237.5,238.5C 238.575,234.134 240.241,230.134 242.5,226.5C 244.806,226.007 247.139,225.674 249.5,225.5 Z"/></g>
<g><path style="opacity:1" fill="#ebd8dd" d="M 165.5,225.5 C 165.833,225.5 166.167,225.5 166.5,225.5C 166.672,226.492 166.338,227.158 165.5,227.5C 164.5,227.5 163.5,227.5 162.5,227.5C 163.29,226.599 164.29,225.932 165.5,225.5 Z"/></g>
<g><path style="opacity:1" fill="#c80610" d="M 176.5,226.5 C 178.493,228.841 179.826,231.675 180.5,235C 178.842,236.663 176.842,237.496 174.5,237.5C 175.167,233.833 175.833,230.167 176.5,226.5 Z"/></g>
<g><path style="opacity:1" fill="#81324d" d="M 238.5,210.5 C 239.5,210.5 240.5,210.5 241.5,210.5C 242.167,210.5 242.5,210.833 242.5,211.5C 241.504,211.414 240.671,211.748 240,212.5C 238.932,215.871 237.765,219.204 236.5,222.5C 236.624,223.107 236.957,223.44 237.5,223.5C 232.139,229.193 226.805,234.86 221.5,240.5C 221.389,239.883 221.056,239.383 220.5,239C 222.641,235.425 224.307,231.591 225.5,227.5C 223.876,224.866 221.543,223.533 218.5,223.5C 218.5,223.167 218.5,222.833 218.5,222.5C 218.5,222.167 218.5,221.833 218.5,221.5C 220.727,219.393 222.727,217.06 224.5,214.5C 225.167,214.5 225.833,214.5 226.5,214.5C 226.5,218.167 226.5,221.833 226.5,225.5C 228.857,225.663 231.19,225.497 233.5,225C 231.244,221.594 229.244,218.094 227.5,214.5C 227.5,213.833 227.5,213.167 227.5,212.5C 231.042,211.325 234.709,210.659 238.5,210.5 Z"/></g>
<g><path style="opacity:1" fill="#3c003e" d="M 226.5,214.5 C 226.833,214.5 227.167,214.5 227.5,214.5C 229.244,218.094 231.244,221.594 233.5,225C 231.19,225.497 228.857,225.663 226.5,225.5C 226.5,221.833 226.5,218.167 226.5,214.5 Z"/></g>
<g><path style="opacity:1" fill="#597ea7" d="M 326.5,225.5 C 327.167,225.5 327.833,225.5 328.5,225.5C 330.556,228.049 333.222,229.549 336.5,230C 334.175,234.303 333.841,238.803 335.5,243.5C 334.167,243.5 332.833,243.5 331.5,243.5C 328.833,242.833 326.167,242.167 323.5,241.5C 322.833,241.5 322.167,241.5 321.5,241.5C 321.167,240.833 320.833,240.167 320.5,239.5C 322.306,234.746 324.306,230.08 326.5,225.5 Z"/></g>
<g><path style="opacity:1" fill="#801a37" d="M 162.5,227.5 C 163.5,227.5 164.5,227.5 165.5,227.5C 165.456,232.118 164.456,236.452 162.5,240.5C 158.835,238.159 155.501,235.493 152.5,232.5C 153.1,231.1 154.1,230.1 155.5,229.5C 157.701,228.434 160.035,227.767 162.5,227.5 Z"/></g>
<g><path style="opacity:1" fill="#e8989c" d="M 242.5,224.5 C 242.5,225.167 242.5,225.833 242.5,226.5C 240.241,230.134 238.575,234.134 237.5,238.5C 237.97,239.463 238.637,239.463 239.5,238.5C 239.833,239.167 240.167,239.833 240.5,240.5C 239.244,240.461 238.244,240.961 237.5,242C 238.942,242.377 239.942,243.21 240.5,244.5C 239.417,244.461 238.417,244.127 237.5,243.5C 236.702,243.957 236.369,244.624 236.5,245.5C 235.038,244.529 233.705,244.862 232.5,246.5C 232.92,244.906 233.586,243.406 234.5,242C 233.73,240.225 232.563,238.725 231,237.5C 230.517,238.448 230.351,239.448 230.5,240.5C 229.833,241.167 229.167,241.833 228.5,242.5C 228.687,240.436 229.187,238.436 230,236.5C 234.109,232.22 238.276,228.22 242.5,224.5 Z"/></g>
<g><path style="opacity:1" fill="#ed797a" d="M 251.5,223.5 C 250.385,227.731 249.385,232.064 248.5,236.5C 245.833,237.833 243.167,239.167 240.5,240.5C 240.167,239.833 239.833,239.167 239.5,238.5C 242.809,234.185 246.143,229.852 249.5,225.5C 250.167,224.833 250.833,224.167 251.5,223.5 Z"/></g>
<g><path style="opacity:1" fill="#49e1e5" d="M 260.5,235.5 C 260.34,233.847 259.674,232.514 258.5,231.5C 259.5,230.833 260.5,230.167 261.5,229.5C 264.297,228.639 266.963,228.305 269.5,228.5C 271.358,230.524 273.025,232.691 274.5,235C 271.317,236.466 267.984,237.633 264.5,238.5C 262.84,237.828 261.507,236.828 260.5,235.5 Z"/></g>
<g><path style="opacity:1" fill="#e77070" d="M 176.5,224.5 C 177.167,224.5 177.833,224.5 178.5,224.5C 181.5,228.5 184.5,232.5 187.5,236.5C 187.167,237.167 186.833,237.833 186.5,238.5C 184.97,237.933 183.47,237.267 182,236.5C 181.802,238.382 181.302,240.048 180.5,241.5C 179.833,243.167 179.167,244.833 178.5,246.5C 176.808,244.795 175.475,242.795 174.5,240.5C 174.5,239.5 174.5,238.5 174.5,237.5C 176.842,237.496 178.842,236.663 180.5,235C 179.826,231.675 178.493,228.841 176.5,226.5C 176.5,225.833 176.5,225.167 176.5,224.5 Z"/></g>
<g><path style="opacity:1" fill="#e42505" d="M 197.5,229.5 C 200.378,231.105 203.378,232.439 206.5,233.5C 206.5,234.167 206.5,234.833 206.5,235.5C 203.917,238.997 201.584,242.664 199.5,246.5C 198.833,242.5 198.167,238.5 197.5,234.5C 197.5,232.833 197.5,231.167 197.5,229.5 Z"/></g>
<g><path style="opacity:1" fill="#2c5c8f" d="M 300.5,227.5 C 301.167,228.5 301.833,229.5 302.5,230.5C 302.5,236.5 302.5,242.5 302.5,248.5C 301.5,248.5 300.5,248.5 299.5,248.5C 296.167,243.833 292.833,239.167 289.5,234.5C 289.5,233.5 289.5,232.5 289.5,231.5C 292.522,231.196 295.522,230.696 298.5,230C 299.756,229.583 300.423,228.75 300.5,227.5 Z"/></g>
<g><path style="opacity:1" fill="#1f2a6f" d="M 302.5,230.5 C 302.833,230.5 303.167,230.5 303.5,230.5C 308.32,234.078 313.32,237.412 318.5,240.5C 318.389,241.117 318.056,241.617 317.5,242C 319.066,242.765 320.399,242.598 321.5,241.5C 322.167,241.5 322.833,241.5 323.5,241.5C 326.167,242.167 328.833,242.833 331.5,243.5C 324.705,246.9 317.705,249.733 310.5,252C 313.069,249.521 315.402,246.854 317.5,244C 317,243.833 316.5,243.667 316,243.5C 310.058,245.766 305.558,248.099 302.5,250.5C 302.5,249.833 302.5,249.167 302.5,248.5C 302.5,242.5 302.5,236.5 302.5,230.5 Z"/></g>
<g><path style="opacity:1" fill="#b80314" d="M 197.5,234.5 C 197.666,238.514 197.499,242.514 197,246.5C 194.63,243.961 192.13,241.628 189.5,239.5C 190.608,235.869 192.774,232.869 196,230.5C 196.21,232.058 196.71,233.391 197.5,234.5 Z"/></g>
<g><path style="opacity:1" fill="#214a83" d="M 286.5,233.5 C 286.5,234.167 286.5,234.833 286.5,235.5C 285.258,239.655 283.258,243.322 280.5,246.5C 277.312,248.657 273.979,248.99 270.5,247.5C 272.262,243.638 274.262,239.972 276.5,236.5C 279.833,235.5 283.167,234.5 286.5,233.5 Z"/></g>
<g><path style="opacity:1" fill="#050153" d="M 323.5,241.5 C 322.402,240.603 322.402,239.77 323.5,239C 326.45,236.361 329.783,234.527 333.5,233.5C 333.5,236.167 333.5,238.833 333.5,241.5C 330.167,241.5 326.833,241.5 323.5,241.5 Z"/></g>
<g><path style="opacity:1" fill="#b88a9e" d="M 207.5,232.5 C 208.167,232.5 208.833,232.5 209.5,232.5C 209.577,233.75 210.244,234.583 211.5,235C 210.151,235.772 209.318,236.939 209,238.5C 208.764,236.881 207.931,235.881 206.5,235.5C 206.5,234.833 206.5,234.167 206.5,233.5C 207.167,233.5 207.5,233.167 207.5,232.5 Z"/></g>
<g><path style="opacity:1" fill="#0d246a" d="M 289.5,234.5 C 292.833,239.167 296.167,243.833 299.5,248.5C 296.167,248.5 292.833,248.5 289.5,248.5C 289.167,248.5 288.833,248.5 288.5,248.5C 285.302,249.036 282.635,248.369 280.5,246.5C 283.258,243.322 285.258,239.655 286.5,235.5C 287.391,234.89 288.391,234.557 289.5,234.5 Z"/></g>
<g><path style="opacity:1" fill="#6a1b42" d="M 218.5,223.5 C 221.543,223.533 223.876,224.866 225.5,227.5C 224.307,231.591 222.641,235.425 220.5,239C 221.056,239.383 221.389,239.883 221.5,240.5C 219.383,244.569 217.383,248.735 215.5,253C 207.146,254.455 198.812,255.955 190.5,257.5C 192.266,253.398 195.266,250.731 199.5,249.5C 199.5,248.5 199.5,247.5 199.5,246.5C 201.584,242.664 203.917,238.997 206.5,235.5C 207.931,235.881 208.764,236.881 209,238.5C 209.318,236.939 210.151,235.772 211.5,235C 210.244,234.583 209.577,233.75 209.5,232.5C 211.862,229.808 214.196,227.141 216.5,224.5C 217.492,224.672 218.158,224.338 218.5,223.5 Z"/></g>
<g><path style="opacity:1" fill="#a66769" d="M 258.5,231.5 C 259.674,232.514 260.34,233.847 260.5,235.5C 260.303,242.235 257.303,247.235 251.5,250.5C 250.712,245.766 249.712,241.1 248.5,236.5C 251.469,234.349 254.802,232.682 258.5,231.5 Z"/></g>
<g><path style="opacity:1" fill="#d1040a" d="M 232.5,246.5 C 231.833,244.5 231.167,242.5 230.5,240.5C 230.351,239.448 230.517,238.448 231,237.5C 232.563,238.725 233.73,240.225 234.5,242C 233.586,243.406 232.92,244.906 232.5,246.5 Z"/></g>
<g><path style="opacity:1" fill="#cc1918" d="M 248.5,236.5 C 249.712,241.1 250.712,245.766 251.5,250.5C 250.833,250.5 250.167,250.5 249.5,250.5C 245.975,249.241 242.975,247.241 240.5,244.5C 239.942,243.21 238.942,242.377 237.5,242C 238.244,240.961 239.244,240.461 240.5,240.5C 243.167,239.167 245.833,237.833 248.5,236.5 Z"/></g>
<g><path style="opacity:1" fill="#e4dee8" d="M 174.5,237.5 C 174.5,238.5 174.5,239.5 174.5,240.5C 173.833,240.5 173.167,240.5 172.5,240.5C 171.282,238.668 171.949,237.668 174.5,237.5 Z"/></g>
<g><path style="opacity:1" fill="#ca1213" d="M 186.5,238.5 C 186.5,239.167 186.833,239.5 187.5,239.5C 187.738,244.858 187.904,250.191 188,255.5C 185.63,252.961 183.13,250.628 180.5,248.5C 180.85,246.374 180.85,244.041 180.5,241.5C 181.302,240.048 181.802,238.382 182,236.5C 183.47,237.267 184.97,237.933 186.5,238.5 Z"/></g>
<g><path style="opacity:1" fill="#e88385" d="M 197.5,234.5 C 198.167,238.5 198.833,242.5 199.5,246.5C 199.5,247.5 199.5,248.5 199.5,249.5C 195.266,250.731 192.266,253.398 190.5,257.5C 190.44,258.043 190.107,258.376 189.5,258.5C 187.581,257.388 185.914,256.054 184.5,254.5C 183.167,252.833 181.833,251.167 180.5,249.5C 180.5,249.167 180.5,248.833 180.5,248.5C 183.13,250.628 185.63,252.961 188,255.5C 187.904,250.191 187.738,244.858 187.5,239.5C 188.167,239.5 188.833,239.5 189.5,239.5C 192.13,241.628 194.63,243.961 197,246.5C 197.499,242.514 197.666,238.514 197.5,234.5 Z"/></g>
<g><path style="opacity:1" fill="#d6dce7" d="M 319.5,239.5 C 319.833,239.5 320.167,239.5 320.5,239.5C 320.833,240.167 321.167,240.833 321.5,241.5C 320.399,242.598 319.066,242.765 317.5,242C 318.056,241.617 318.389,241.117 318.5,240.5C 319.167,240.5 319.5,240.167 319.5,239.5 Z"/></g>
<g><path style="opacity:1" fill="#bc141c" d="M 172.5,240.5 C 173.167,240.5 173.833,240.5 174.5,240.5C 175.475,242.795 176.808,244.795 178.5,246.5C 176.393,247.468 174.059,247.802 171.5,247.5C 171.993,245.194 172.326,242.861 172.5,240.5 Z"/></g>
<g><path style="opacity:1" fill="#e50302" d="M 240.5,244.5 C 242.975,247.241 245.975,249.241 249.5,250.5C 250.54,252.719 250.04,254.719 248,256.5C 245,259.5 242,262.5 239,265.5C 238.79,263.942 238.29,262.609 237.5,261.5C 237.821,255.974 237.488,250.64 236.5,245.5C 236.369,244.624 236.702,243.957 237.5,243.5C 238.417,244.127 239.417,244.461 240.5,244.5 Z"/></g>
<g><path style="opacity:1" fill="#e5413f" d="M 230.5,240.5 C 230.336,243.187 230.503,245.854 231,248.5C 231.717,247.956 232.217,247.289 232.5,246.5C 233.705,244.862 235.038,244.529 236.5,245.5C 237.488,250.64 237.821,255.974 237.5,261.5C 237.768,263.099 237.434,264.432 236.5,265.5C 232.147,262.146 228.48,258.146 225.5,253.5C 226.377,249.772 227.377,246.105 228.5,242.5C 229.167,241.833 229.833,241.167 230.5,240.5 Z"/></g>
<g><path style="opacity:1" fill="#d97c85" d="M 230.5,240.5 C 231.167,242.5 231.833,244.5 232.5,246.5C 232.217,247.289 231.717,247.956 231,248.5C 230.503,245.854 230.336,243.187 230.5,240.5 Z"/></g>
<g><path style="opacity:1" fill="#d28591" d="M 180.5,241.5 C 180.85,244.041 180.85,246.374 180.5,248.5C 180.5,248.833 180.5,249.167 180.5,249.5C 178.021,248.377 175.688,248.377 173.5,249.5C 172.5,249.167 171.833,248.5 171.5,247.5C 174.059,247.802 176.393,247.468 178.5,246.5C 179.167,244.833 179.833,243.167 180.5,241.5 Z"/></g>
<g><path style="opacity:1" fill="#dd1b19" d="M 173.5,249.5 C 175.688,248.377 178.021,248.377 180.5,249.5C 181.833,251.167 183.167,252.833 184.5,254.5C 180.684,253.091 177.017,251.424 173.5,249.5 Z"/></g>
<g><path style="opacity:1" fill="#112c70" d="M 277.5,251.5 C 276.11,252.899 275.11,254.566 274.5,256.5C 271.888,254.948 270.555,252.614 270.5,249.5C 273.388,248.99 275.721,249.656 277.5,251.5 Z"/></g>
<g><path style="opacity:1" fill="#225c8e" d="M 288.5,248.5 C 288.833,248.5 289.167,248.5 289.5,248.5C 292.977,249.323 296.644,249.823 300.5,250C 297.354,252.312 294.354,254.812 291.5,257.5C 287.878,258.325 284.211,258.825 280.5,259C 282.058,259.21 283.391,259.71 284.5,260.5C 282.708,260.366 281.042,260.699 279.5,261.5C 278.041,261.567 276.708,261.234 275.5,260.5C 274.833,260.5 274.5,260.167 274.5,259.5C 275.952,258.698 277.618,258.198 279.5,258C 277.618,257.802 275.952,257.302 274.5,256.5C 275.11,254.566 276.11,252.899 277.5,251.5C 281.063,249.998 284.73,248.998 288.5,248.5 Z"/></g>
<g><path style="opacity:1" fill="#5781a8" d="M 280.5,246.5 C 282.635,248.369 285.302,249.036 288.5,248.5C 284.73,248.998 281.063,249.998 277.5,251.5C 275.721,249.656 273.388,248.99 270.5,249.5C 270.555,252.614 271.888,254.948 274.5,256.5C 275.952,257.302 277.618,257.802 279.5,258C 277.618,258.198 275.952,258.698 274.5,259.5C 273.5,259.5 272.5,259.5 271.5,259.5C 271.611,258.883 271.944,258.383 272.5,258C 267.043,256.804 261.71,255.304 256.5,253.5C 257.152,252.275 258.319,251.608 260,251.5C 263.143,250.893 266.31,250.559 269.5,250.5C 269.263,249.209 269.596,248.209 270.5,247.5C 273.979,248.99 277.312,248.657 280.5,246.5 Z"/></g>
<g><path style="opacity:1" fill="#b45c5e" d="M 253.5,253.5 C 254.5,253.5 255.5,253.5 256.5,253.5C 261.71,255.304 267.043,256.804 272.5,258C 271.944,258.383 271.611,258.883 271.5,259.5C 269,262.832 266,265.666 262.5,268C 263.056,268.383 263.389,268.883 263.5,269.5C 263.5,270.167 263.167,270.5 262.5,270.5C 261.167,270.5 260.5,269.833 260.5,268.5C 258.167,263.833 255.833,259.167 253.5,254.5C 253.5,254.167 253.5,253.833 253.5,253.5 Z"/></g>
<g><path style="opacity:1" fill="#2d6f9b" d="M 302.5,250.5 C 302.833,265.833 303.167,281.167 303.5,296.5C 299.364,288.898 296.364,281.065 294.5,273C 296.896,265.305 299.563,257.805 302.5,250.5 Z"/></g>
<g><path style="opacity:1" fill="#e88386" d="M 249.5,250.5 C 250.167,250.5 250.833,250.5 251.5,250.5C 251.285,252.179 251.952,253.179 253.5,253.5C 253.5,253.833 253.5,254.167 253.5,254.5C 251.585,259.529 250.585,264.863 250.5,270.5C 251.5,270.5 252.5,270.5 253.5,270.5C 253.5,270.833 253.5,271.167 253.5,271.5C 247.699,271.118 242.033,270.118 236.5,268.5C 236.5,267.5 236.5,266.5 236.5,265.5C 237.434,264.432 237.768,263.099 237.5,261.5C 238.29,262.609 238.79,263.942 239,265.5C 242,262.5 245,259.5 248,256.5C 250.04,254.719 250.54,252.719 249.5,250.5 Z"/></g>
<g><path style="opacity:1" fill="#a40018" d="M 253.5,254.5 C 255.833,259.167 258.167,263.833 260.5,268.5C 257.933,268.721 255.599,269.388 253.5,270.5C 252.5,270.5 251.5,270.5 250.5,270.5C 250.585,264.863 251.585,259.529 253.5,254.5 Z"/></g>
<g><path style="opacity:1" fill="#4a0f46" d="M 271.5,259.5 C 272.5,259.5 273.5,259.5 274.5,259.5C 274.5,260.167 274.833,260.5 275.5,260.5C 275.443,261.609 275.11,262.609 274.5,263.5C 271.281,264.069 268.948,265.736 267.5,268.5C 266.167,268.833 264.833,269.167 263.5,269.5C 263.389,268.883 263.056,268.383 262.5,268C 266,265.666 269,262.832 271.5,259.5 Z"/></g>
<g><path style="opacity:1" fill="#254d85" d="M 274.5,263.5 C 275.822,263.33 276.989,263.663 278,264.5C 285.167,274.333 292.333,284.167 299.5,294C 299.272,294.399 298.938,294.565 298.5,294.5C 288.167,285.833 277.833,277.167 267.5,268.5C 268.948,265.736 271.281,264.069 274.5,263.5 Z"/></g>
<g><path style="opacity:1" fill="#67b8cb" d="M 289.5,248.5 C 292.833,248.5 296.167,248.5 299.5,248.5C 300.5,248.5 301.5,248.5 302.5,248.5C 302.5,249.167 302.5,249.833 302.5,250.5C 299.563,257.805 296.896,265.305 294.5,273C 296.364,281.065 299.364,288.898 303.5,296.5C 303.631,297.239 303.464,297.906 303,298.5C 301.008,297.672 299.508,296.339 298.5,294.5C 298.938,294.565 299.272,294.399 299.5,294C 292.333,284.167 285.167,274.333 278,264.5C 276.989,263.663 275.822,263.33 274.5,263.5C 275.11,262.609 275.443,261.609 275.5,260.5C 276.708,261.234 278.041,261.567 279.5,261.5C 278.683,263.308 279.35,264.808 281.5,266C 285.278,268.112 288.778,270.612 292,273.5C 291.818,269.428 290.985,265.428 289.5,261.5C 287.955,260.548 286.288,260.215 284.5,260.5C 283.391,259.71 282.058,259.21 280.5,259C 284.211,258.825 287.878,258.325 291.5,257.5C 294.354,254.812 297.354,252.312 300.5,250C 296.644,249.823 292.977,249.323 289.5,248.5 Z"/></g>
<g><path style="opacity:1" fill="#2b7fa5" d="M 284.5,260.5 C 286.288,260.215 287.955,260.548 289.5,261.5C 290.985,265.428 291.818,269.428 292,273.5C 288.778,270.612 285.278,268.112 281.5,266C 279.35,264.808 278.683,263.308 279.5,261.5C 281.042,260.699 282.708,260.366 284.5,260.5 Z"/></g>
<g><path style="opacity:1" fill="#7c466e" d="M 260.5,268.5 C 260.5,269.833 261.167,270.5 262.5,270.5C 259.713,271.477 256.713,271.81 253.5,271.5C 253.5,271.167 253.5,270.833 253.5,270.5C 255.599,269.388 257.933,268.721 260.5,268.5 Z"/></g>
<g><path style="opacity:1" fill="#e9eaf4" d="M 78.5,317.5 C 84.1764,317.334 89.8431,317.501 95.5,318C 106.305,322.774 109.472,330.607 105,341.5C 102.548,344.821 99.3818,347.321 95.5,349C 89.8431,349.499 84.1764,349.666 78.5,349.5C 78.5,338.833 78.5,328.167 78.5,317.5 Z"/></g>
<g><path style="opacity:1" fill="#eff1f8" d="M 110.5,317.5 C 113.167,317.5 115.833,317.5 118.5,317.5C 118.5,328.167 118.5,338.833 118.5,349.5C 115.833,349.5 113.167,349.5 110.5,349.5C 110.5,338.833 110.5,328.167 110.5,317.5 Z"/></g>
<g><path style="opacity:1" fill="#ebedf5" d="M 135.5,316.5 C 142.638,316.319 148.471,318.986 153,324.5C 153.483,325.448 153.649,326.448 153.5,327.5C 147.087,326.875 140.753,326.042 134.5,325C 130.286,329.2 129.452,334.034 132,339.5C 137.12,343.838 141.62,343.338 145.5,338C 142.518,337.502 139.518,337.335 136.5,337.5C 136.5,335.5 136.5,333.5 136.5,331.5C 142.5,331.5 148.5,331.5 154.5,331.5C 153.542,345.288 146.209,351.121 132.5,349C 123.518,344.527 120.351,337.36 123,327.5C 125.505,321.822 129.671,318.155 135.5,316.5 Z"/></g>
<g><path style="opacity:1" fill="#eaebf4" d="M 157.5,317.5 C 160.167,317.5 162.833,317.5 165.5,317.5C 165.5,328.167 165.5,338.833 165.5,349.5C 162.833,349.5 160.167,349.5 157.5,349.5C 157.5,338.833 157.5,328.167 157.5,317.5 Z"/></g>
<g><path style="opacity:1" fill="#eceef6" d="M 169.5,317.5 C 177.833,317.5 186.167,317.5 194.5,317.5C 194.5,319.5 194.5,321.5 194.5,323.5C 191.5,323.5 188.5,323.5 185.5,323.5C 185.5,332.167 185.5,340.833 185.5,349.5C 182.833,349.5 180.167,349.5 177.5,349.5C 177.5,340.833 177.5,332.167 177.5,323.5C 174.833,323.5 172.167,323.5 169.5,323.5C 169.5,321.5 169.5,319.5 169.5,317.5 Z"/></g>
<g><path style="opacity:1" fill="#eaecf5" d="M 205.5,317.5 C 209.167,317.5 212.833,317.5 216.5,317.5C 219.635,328.239 222.969,338.905 226.5,349.5C 223.5,349.5 220.5,349.5 217.5,349.5C 217.714,347.856 217.38,346.356 216.5,345C 212.459,344.173 208.459,344.34 204.5,345.5C 203.754,346.736 203.421,348.07 203.5,349.5C 200.482,349.665 197.482,349.498 194.5,349C 198.662,338.681 202.329,328.181 205.5,317.5 Z"/></g>
<g><path style="opacity:1" fill="#edeff7" d="M 229.5,317.5 C 232.167,317.5 234.833,317.5 237.5,317.5C 237.5,326.167 237.5,334.833 237.5,343.5C 240.833,343.5 244.167,343.5 247.5,343.5C 247.5,345.5 247.5,347.5 247.5,349.5C 241.5,349.5 235.5,349.5 229.5,349.5C 229.5,338.833 229.5,328.167 229.5,317.5 Z"/></g>
<g><path style="opacity:1" fill="#eaecf5" d="M 259.5,318.5 C 262.287,317.523 265.287,317.19 268.5,317.5C 269.806,324.195 271.306,330.862 273,337.5C 275.448,331.047 277.281,324.38 278.5,317.5C 281.833,317.5 285.167,317.5 288.5,317.5C 289.839,323.856 291.339,330.189 293,336.5C 295.319,330.414 296.819,324.081 297.5,317.5C 300.572,317.183 303.572,317.516 306.5,318.5C 303.07,328.654 300.404,338.987 298.5,349.5C 295.167,349.5 291.833,349.5 288.5,349.5C 287.176,343.027 285.343,336.694 283,330.5C 281.355,336.561 279.521,342.561 277.5,348.5C 274.291,349.787 271.125,349.787 268,348.5C 265.764,338.209 262.931,328.209 259.5,318.5 Z"/></g>
<g><path style="opacity:1" fill="#e9eaf4" d="M 320.5,316.5 C 338.326,318.168 343.826,327.168 337,343.5C 331.636,349.061 325.136,350.895 317.5,349C 307.155,342.981 304.655,334.481 310,323.5C 312.998,320.262 316.498,317.929 320.5,316.5 Z"/></g>
<g><path style="opacity:1" fill="#ebecf5" d="M 343.5,317.5 C 349.509,317.334 355.509,317.501 361.5,318C 370.833,324.333 370.833,330.667 361.5,337C 363.959,340.75 366.292,344.583 368.5,348.5C 365.554,349.655 362.554,349.821 359.5,349C 357.041,345.25 354.708,341.417 352.5,337.5C 351.509,341.445 351.176,345.445 351.5,349.5C 348.833,349.5 346.167,349.5 343.5,349.5C 343.5,338.833 343.5,328.167 343.5,317.5 Z"/></g>
<g><path style="opacity:1" fill="#edeff7" d="M 373.5,317.5 C 376.167,317.5 378.833,317.5 381.5,317.5C 381.5,326.167 381.5,334.833 381.5,343.5C 384.833,343.5 388.167,343.5 391.5,343.5C 391.5,345.5 391.5,347.5 391.5,349.5C 385.5,349.5 379.5,349.5 373.5,349.5C 373.5,338.833 373.5,328.167 373.5,317.5 Z"/></g>
<g><path style="opacity:1" fill="#eaecf5" d="M 393.5,317.5 C 399.176,317.334 404.843,317.501 410.5,318C 421.997,322.166 425.497,329.999 421,341.5C 418.313,345.194 414.813,347.694 410.5,349C 404.843,349.499 399.176,349.666 393.5,349.5C 393.5,338.833 393.5,328.167 393.5,317.5 Z"/></g>
<g><path style="opacity:1" fill="#080254" d="M 86.5,323.5 C 96.5354,323.529 100.369,328.529 98,338.5C 95.1207,342.188 91.2874,343.854 86.5,343.5C 86.5,336.833 86.5,330.167 86.5,323.5 Z"/></g>
<g><path style="opacity:1" fill="#0f0758" d="M 352.5,323.5 C 357.993,322.178 360.493,324.178 360,329.5C 359.617,330.056 359.117,330.389 358.5,330.5C 356.5,330.5 354.5,330.5 352.5,330.5C 352.5,328.167 352.5,325.833 352.5,323.5 Z"/></g>
<g><path style="opacity:1" fill="#0f0758" d="M 401.5,323.5 C 411.557,323.052 415.723,327.718 414,337.5C 411.261,342.257 407.094,344.257 401.5,343.5C 401.5,336.833 401.5,330.167 401.5,323.5 Z"/></g>
<g><path style="opacity:1" fill="#090355" d="M 319.5,324.5 C 329.655,323.829 333.488,328.496 331,338.5C 325.514,344.08 320.514,343.747 316,337.5C 314.668,332.415 315.835,328.081 319.5,324.5 Z"/></g>
<g><path style="opacity:1" fill="#291e67" d="M 210.5,327.5 C 212.002,330.654 213.336,333.987 214.5,337.5C 212.257,338.474 209.924,338.808 207.5,338.5C 207.894,334.653 208.894,330.986 210.5,327.5 Z"/></g>
<g><path style="opacity:1" fill="#6a689b" d="M 352.5,323.5 C 352.5,325.833 352.5,328.167 352.5,330.5C 354.5,330.5 356.5,330.5 358.5,330.5C 356.393,331.468 354.059,331.802 351.5,331.5C 351.194,328.615 351.527,325.948 352.5,323.5 Z"/></g>
<g><path style="opacity:1" fill="#30afc4" d="M 284.5,361.5 C 285.814,363.915 286.481,366.748 286.5,370C 286.167,372.833 285.833,375.667 285.5,378.5C 284.505,372.872 284.171,367.206 284.5,361.5 Z"/></g>
<g><path style="opacity:1" fill="#34b7c9" d="M 184.5,365.5 C 187.99,365.245 190.657,366.578 192.5,369.5C 192.167,369.833 191.833,370.167 191.5,370.5C 184.912,365.578 182.079,367.244 183,375.5C 183.5,376 184,376.5 184.5,377C 187.51,377.248 190.176,376.582 192.5,375C 188.865,379.41 185.032,379.577 181,375.5C 179.756,371.191 180.923,367.858 184.5,365.5 Z"/></g>
<g><path style="opacity:1" fill="#33b7c9" d="M 232.5,365.5 C 235.085,366.072 237.751,366.239 240.5,366C 243.621,369.644 244.288,373.811 242.5,378.5C 241.676,375.215 241.176,371.882 241,368.5C 239,367.167 237,367.167 235,368.5C 234.824,371.882 234.324,375.215 233.5,378.5C 232.508,374.217 232.174,369.884 232.5,365.5 Z"/></g>
<g><path style="opacity:1" fill="#34b9ca" d="M 261.5,365.5 C 269.391,366.129 271.725,369.962 268.5,377C 260.809,380.306 257.309,377.806 258,369.5C 259.102,368.051 260.269,366.718 261.5,365.5 Z"/></g>
<g><path style="opacity:1" fill="#33b1c6" d="M 304.5,365.5 C 311.369,365.538 313.869,368.871 312,375.5C 308.38,379.487 304.713,379.487 301,375.5C 299.581,371.082 300.748,367.749 304.5,365.5 Z"/></g>
<g><path style="opacity:1" fill="#174b84" d="M 337.5,366.5 C 337.56,365.957 337.893,365.624 338.5,365.5C 339.814,370.652 339.814,375.652 338.5,380.5C 338.819,375.637 338.486,370.97 337.5,366.5 Z"/></g>
<g><path style="opacity:1" fill="#35bdcd" d="M 136.5,362.5 C 138.048,362.821 138.715,363.821 138.5,365.5C 142.5,366.167 142.5,366.833 138.5,367.5C 138.5,370.5 138.5,373.5 138.5,376.5C 139.675,376.281 140.675,376.614 141.5,377.5C 139.994,378.747 138.494,378.747 137,377.5C 136.142,372.361 135.975,367.361 136.5,362.5 Z"/></g>
<g><path style="opacity:1" fill="#080c59" d="M 261.5,367.5 C 266.85,366.863 269.017,369.197 268,374.5C 265.718,378.041 263.051,378.374 260,375.5C 259.109,372.502 259.609,369.836 261.5,367.5 Z"/></g>
<g><path style="opacity:1" fill="#060757" d="M 304.5,367.5 C 309.989,367.504 311.822,370.171 310,375.5C 307.667,378.167 305.333,378.167 303,375.5C 302.109,372.502 302.609,369.836 304.5,367.5 Z"/></g>
<g><path style="opacity:1" fill="#38cbd6" d="M 166.5,369.5 C 166.5,370.5 166.5,371.5 166.5,372.5C 162.498,372.036 158.831,372.702 155.5,374.5C 154.619,368.216 157.286,365.383 163.5,366C 164.71,367.039 165.71,368.206 166.5,369.5 Z"/></g>
<g><path style="opacity:1" fill="#070b59" d="M 158.5,367.5 C 161.596,366.907 163.929,367.907 165.5,370.5C 162.554,371.655 159.554,371.821 156.5,371C 157.305,369.887 157.972,368.721 158.5,367.5 Z"/></g>
<g><path style="opacity:1" fill="#33b5c8" d="M 206.5,361.5 C 208.164,362.949 208.998,364.949 209,367.5C 211.587,364.966 214.253,364.966 217,367.5C 217.825,371.211 217.659,374.878 216.5,378.5C 215.676,375.215 215.176,371.882 215,368.5C 212.733,367.065 210.733,367.398 209,369.5C 208.821,372.553 208.321,375.553 207.5,378.5C 206.505,372.872 206.171,367.206 206.5,361.5 Z"/></g>
<g><path style="opacity:1" fill="#2f9cb8" d="M 166.5,369.5 C 167.434,370.568 167.768,371.901 167.5,373.5C 164.102,373.18 160.768,373.513 157.5,374.5C 160.167,378.5 162.833,378.5 165.5,374.5C 166.521,375.002 166.688,375.668 166,376.5C 163.032,378.991 159.865,379.157 156.5,377C 155.748,376.329 155.414,375.496 155.5,374.5C 158.831,372.702 162.498,372.036 166.5,372.5C 166.5,371.5 166.5,370.5 166.5,369.5 Z"/></g>
<g><path style="opacity:1" fill="#33b5c8" d="M 352.5,365.5 C 353.376,365.369 354.043,365.702 354.5,366.5C 355.836,369.51 357.169,372.51 358.5,375.5C 359.717,372.343 361.217,369.343 363,366.5C 361.951,372.806 359.785,378.806 356.5,384.5C 355.897,382.548 356.23,380.548 357.5,378.5C 355.63,374.221 353.964,369.888 352.5,365.5 Z"/></g>
<g><path style="opacity:1" fill="#35b9cb" d="M 336.5,368.5 C 337.338,368.158 337.672,367.492 337.5,366.5C 338.486,370.97 338.819,375.637 338.5,380.5C 337.622,383.287 335.622,384.62 332.5,384.5C 330.078,384.743 328.412,383.743 327.5,381.5C 327.833,381.167 328.167,380.833 328.5,380.5C 330.536,382.345 332.87,382.845 335.5,382C 336.554,380.612 336.72,379.112 336,377.5C 328.471,379.305 325.471,376.305 327,368.5C 330.379,364.665 333.546,364.665 336.5,368.5 Z"/></g>
<g><path style="opacity:1" fill="#080958" d="M 336.5,368.5 C 338.548,374.954 336.214,377.454 329.5,376C 327.225,369.109 329.558,366.609 336.5,368.5 Z"/></g>
</svg>
